<svg width="512" height="512" viewBox="0 0 512 512" fill="none" xmlns="http://www.w3.org/2000/svg">
<g opacity="0.296765">
<path d="M378.47 38.0762H133.73C79.8804 38.0762 36.2266 81.73 36.2266 135.58V380.32C36.2266 434.169 79.8804 477.823 133.73 477.823H378.47C432.32 477.823 475.974 434.169 475.974 380.32V135.58C475.974 81.73 432.32 38.0762 378.47 38.0762Z" stroke="black" stroke-opacity="0.02" stroke-width="0.368781" stroke-linecap="round" stroke-linejoin="round"/>
<path d="M378.47 38.0762H133.73C79.8804 38.0762 36.2266 81.73 36.2266 135.58V380.32C36.2266 434.169 79.8804 477.823 133.73 477.823H378.47C432.32 477.823 475.974 434.169 475.974 380.32V135.58C475.974 81.73 432.32 38.0762 378.47 38.0762Z" stroke="black" stroke-opacity="0.02" stroke-width="0.737561" stroke-linecap="round" stroke-linejoin="round"/>
<path d="M378.47 38.0762H133.73C79.8804 38.0762 36.2266 81.73 36.2266 135.58V380.32C36.2266 434.169 79.8804 477.823 133.73 477.823H378.47C432.32 477.823 475.974 434.169 475.974 380.32V135.58C475.974 81.73 432.32 38.0762 378.47 38.0762Z" stroke="black" stroke-opacity="0.02" stroke-width="1.10634" stroke-linecap="round" stroke-linejoin="round"/>
<path d="M378.47 38.0762H133.73C79.8804 38.0762 36.2266 81.73 36.2266 135.58V380.32C36.2266 434.169 79.8804 477.823 133.73 477.823H378.47C432.32 477.823 475.974 434.169 475.974 380.32V135.58C475.974 81.73 432.32 38.0762 378.47 38.0762Z" stroke="black" stroke-opacity="0.02" stroke-width="1.47512" stroke-linecap="round" stroke-linejoin="round"/>
<path d="M378.47 38.0762H133.73C79.8804 38.0762 36.2266 81.73 36.2266 135.58V380.32C36.2266 434.169 79.8804 477.823 133.73 477.823H378.47C432.32 477.823 475.974 434.169 475.974 380.32V135.58C475.974 81.73 432.32 38.0762 378.47 38.0762Z" stroke="black" stroke-opacity="0.02" stroke-width="1.8439" stroke-linecap="round" stroke-linejoin="round"/>
<path d="M378.47 38.0762H133.73C79.8804 38.0762 36.2266 81.73 36.2266 135.58V380.32C36.2266 434.169 79.8804 477.823 133.73 477.823H378.47C432.32 477.823 475.974 434.169 475.974 380.32V135.58C475.974 81.73 432.32 38.0762 378.47 38.0762Z" stroke="black" stroke-opacity="0.02" stroke-width="2.21268" stroke-linecap="round" stroke-linejoin="round"/>
<path d="M378.47 38.0762H133.73C79.8804 38.0762 36.2266 81.73 36.2266 135.58V380.32C36.2266 434.169 79.8804 477.823 133.73 477.823H378.47C432.32 477.823 475.974 434.169 475.974 380.32V135.58C475.974 81.73 432.32 38.0762 378.47 38.0762Z" stroke="black" stroke-opacity="0.02" stroke-width="2.58146" stroke-linecap="round" stroke-linejoin="round"/>
<path d="M378.47 38.0762H133.73C79.8804 38.0762 36.2266 81.73 36.2266 135.58V380.32C36.2266 434.169 79.8804 477.823 133.73 477.823H378.47C432.32 477.823 475.974 434.169 475.974 380.32V135.58C475.974 81.73 432.32 38.0762 378.47 38.0762Z" stroke="black" stroke-opacity="0.02" stroke-width="2.95025" stroke-linecap="round" stroke-linejoin="round"/>
<path d="M378.47 38.0762H133.73C79.8804 38.0762 36.2266 81.73 36.2266 135.58V380.32C36.2266 434.169 79.8804 477.823 133.73 477.823H378.47C432.32 477.823 475.974 434.169 475.974 380.32V135.58C475.974 81.73 432.32 38.0762 378.47 38.0762Z" stroke="black" stroke-opacity="0.02" stroke-width="3.68781" stroke-linecap="round" stroke-linejoin="round"/>
<path d="M378.47 38.0762H133.73C79.8804 38.0762 36.2266 81.73 36.2266 135.58V380.32C36.2266 434.169 79.8804 477.823 133.73 477.823H378.47C432.32 477.823 475.974 434.169 475.974 380.32V135.58C475.974 81.73 432.32 38.0762 378.47 38.0762Z" stroke="black" stroke-opacity="0.02" stroke-width="4.42537" stroke-linecap="round" stroke-linejoin="round"/>
<path d="M378.47 38.0762H133.73C79.8804 38.0762 36.2266 81.73 36.2266 135.58V380.32C36.2266 434.169 79.8804 477.823 133.73 477.823H378.47C432.32 477.823 475.974 434.169 475.974 380.32V135.58C475.974 81.73 432.32 38.0762 378.47 38.0762Z" stroke="black" stroke-opacity="0.02" stroke-width="5.16293" stroke-linecap="round" stroke-linejoin="round"/>
<path d="M378.47 38.0762H133.73C79.8804 38.0762 36.2266 81.73 36.2266 135.58V380.32C36.2266 434.169 79.8804 477.823 133.73 477.823H378.47C432.32 477.823 475.974 434.169 475.974 380.32V135.58C475.974 81.73 432.32 38.0762 378.47 38.0762Z" stroke="black" stroke-opacity="0.02" stroke-width="5.90049" stroke-linecap="round" stroke-linejoin="round"/>
<path d="M378.47 38.0762H133.73C79.8804 38.0762 36.2266 81.73 36.2266 135.58V380.32C36.2266 434.169 79.8804 477.823 133.73 477.823H378.47C432.32 477.823 475.974 434.169 475.974 380.32V135.58C475.974 81.73 432.32 38.0762 378.47 38.0762Z" stroke="black" stroke-opacity="0.02" stroke-width="6.63805" stroke-linecap="round" stroke-linejoin="round"/>
<path d="M378.47 38.0762H133.73C79.8804 38.0762 36.2266 81.73 36.2266 135.58V380.32C36.2266 434.169 79.8804 477.823 133.73 477.823H378.47C432.32 477.823 475.974 434.169 475.974 380.32V135.58C475.974 81.73 432.32 38.0762 378.47 38.0762Z" stroke="black" stroke-opacity="0.02" stroke-width="7.37561" stroke-linecap="round" stroke-linejoin="round"/>
<path d="M378.47 38.0762H133.73C79.8804 38.0762 36.2266 81.73 36.2266 135.58V380.32C36.2266 434.169 79.8804 477.823 133.73 477.823H378.47C432.32 477.823 475.974 434.169 475.974 380.32V135.58C475.974 81.73 432.32 38.0762 378.47 38.0762Z" stroke="black" stroke-opacity="0.02" stroke-width="8.11317" stroke-linecap="round" stroke-linejoin="round"/>
<path d="M378.47 38.0762H133.73C79.8804 38.0762 36.2266 81.73 36.2266 135.58V380.32C36.2266 434.169 79.8804 477.823 133.73 477.823H378.47C432.32 477.823 475.974 434.169 475.974 380.32V135.58C475.974 81.73 432.32 38.0762 378.47 38.0762Z" stroke="black" stroke-opacity="0.02" stroke-width="9.5883" stroke-linecap="round" stroke-linejoin="round"/>
<path d="M378.47 38.0762H133.73C79.8804 38.0762 36.2266 81.73 36.2266 135.58V380.32C36.2266 434.169 79.8804 477.823 133.73 477.823H378.47C432.32 477.823 475.974 434.169 475.974 380.32V135.58C475.974 81.73 432.32 38.0762 378.47 38.0762Z" stroke="black" stroke-opacity="0.02" stroke-width="11.0634" stroke-linecap="round" stroke-linejoin="round"/>
<path d="M378.47 38.0762H133.73C79.8804 38.0762 36.2266 81.73 36.2266 135.58V380.32C36.2266 434.169 79.8804 477.823 133.73 477.823H378.47C432.32 477.823 475.974 434.169 475.974 380.32V135.58C475.974 81.73 432.32 38.0762 378.47 38.0762Z" stroke="black" stroke-opacity="0.02" stroke-width="12.5385" stroke-linecap="round" stroke-linejoin="round"/>
<path d="M378.47 38.0762H133.73C79.8804 38.0762 36.2266 81.73 36.2266 135.58V380.32C36.2266 434.169 79.8804 477.823 133.73 477.823H378.47C432.32 477.823 475.974 434.169 475.974 380.32V135.58C475.974 81.73 432.32 38.0762 378.47 38.0762Z" stroke="black" stroke-opacity="0.02" stroke-width="14.0137" stroke-linecap="round" stroke-linejoin="round"/>
<path d="M378.47 38.0762H133.73C79.8804 38.0762 36.2266 81.73 36.2266 135.58V380.32C36.2266 434.169 79.8804 477.823 133.73 477.823H378.47C432.32 477.823 475.974 434.169 475.974 380.32V135.58C475.974 81.73 432.32 38.0762 378.47 38.0762Z" stroke="black" stroke-opacity="0.02" stroke-width="15.4888" stroke-linecap="round" stroke-linejoin="round"/>
<path d="M378.47 38.0762H133.73C79.8804 38.0762 36.2266 81.73 36.2266 135.58V380.32C36.2266 434.169 79.8804 477.823 133.73 477.823H378.47C432.32 477.823 475.974 434.169 475.974 380.32V135.58C475.974 81.73 432.32 38.0762 378.47 38.0762Z" stroke="black" stroke-opacity="0.02" stroke-width="16.9639" stroke-linecap="round" stroke-linejoin="round"/>
<path d="M378.47 38.0762H133.73C79.8804 38.0762 36.2266 81.73 36.2266 135.58V380.32C36.2266 434.169 79.8804 477.823 133.73 477.823H378.47C432.32 477.823 475.974 434.169 475.974 380.32V135.58C475.974 81.73 432.32 38.0762 378.47 38.0762Z" stroke="black" stroke-opacity="0.02" stroke-width="18.439" stroke-linecap="round" stroke-linejoin="round"/>
</g>
<path d="M378.625 38.0762H133.885C80.0357 38.0762 36.3818 81.73 36.3818 135.58V380.32C36.3818 434.169 80.0357 477.823 133.885 477.823H378.625C432.475 477.823 476.129 434.169 476.129 380.32V135.58C476.129 81.73 432.475 38.0762 378.625 38.0762Z" fill="url(#paint0_linear_867_583)"/>
<path d="M378.625 38.0762H133.885C80.0357 38.0762 36.3818 81.73 36.3818 135.58V310.32C36.3818 364.169 80.0357 407.823 133.885 407.823H378.625C432.475 407.823 476.129 364.169 476.129 310.32V135.58C476.129 81.73 432.475 38.0762 378.625 38.0762Z" fill="url(#paint1_linear_867_583)"/>
<path d="M36.3828 301.391V310.32C36.3828 364.337 79.8658 407.82 133.883 407.82H378.625C432.642 407.82 476.133 364.337 476.133 310.32V301.391C476.133 355.408 432.642 398.898 378.625 398.898H133.883C79.8658 398.898 36.3828 355.408 36.3828 301.391Z" fill="#F1F3F4"/>
<path d="M382.164 462.592C394.198 462.592 403.954 452.836 403.954 440.802C403.954 428.768 394.198 419.013 382.164 419.013C370.13 419.013 360.375 428.768 360.375 440.802C360.375 452.836 370.13 462.592 382.164 462.592Z" fill="white" fill-opacity="0.36413"/>
<path d="M382.164 460.445C393.013 460.445 401.807 451.65 401.807 440.802C401.807 429.954 393.013 421.159 382.164 421.159C371.316 421.159 362.521 429.954 362.521 440.802C362.521 451.65 371.316 460.445 382.164 460.445Z" fill="url(#paint2_radial_867_583)"/>
<path d="M414.787 364.735C424.396 364.735 432.186 356.945 432.186 347.336C432.186 337.726 424.396 329.937 414.787 329.937C405.178 329.937 397.388 337.726 397.388 347.336C397.388 356.945 405.178 364.735 414.787 364.735Z" fill="white" fill-opacity="0.478261"/>
<path d="M414.787 362.335C423.071 362.335 429.787 355.62 429.787 347.335C429.787 339.051 423.071 332.335 414.787 332.335C406.503 332.335 399.787 339.051 399.787 347.335C399.787 355.62 406.503 362.335 414.787 362.335Z" fill="url(#paint3_linear_867_583)"/>
<path fill-rule="evenodd" clip-rule="evenodd" d="M407.03 340.541C406.544 341.027 406.553 341.81 407.039 342.296L412.078 347.336L407.039 352.375C406.553 352.861 406.544 353.644 407.03 354.13L407.988 355.088C408.474 355.574 409.266 355.574 409.752 355.088L414.791 350.048L419.83 355.088C420.316 355.574 421.091 355.574 421.577 355.088L422.535 354.13C423.021 353.644 423.029 352.861 422.543 352.375L417.504 347.336L422.543 342.296C423.029 341.81 423.021 341.027 422.535 340.541L421.577 339.583C421.091 339.097 420.316 339.097 419.83 339.583L414.791 344.623L409.752 339.583C409.266 339.097 408.474 339.097 407.988 339.583L407.03 340.541Z" fill="#646464"/>
<path d="M96.2155 364.735C105.825 364.735 113.615 356.945 113.615 347.336C113.615 337.726 105.825 329.937 96.2155 329.937C86.6063 329.937 78.8164 337.726 78.8164 347.336C78.8164 356.945 86.6063 364.735 96.2155 364.735Z" fill="white" fill-opacity="0.478261"/>
<path d="M96.2158 362.335C104.5 362.335 111.216 355.62 111.216 347.335C111.216 339.051 104.5 332.335 96.2158 332.335C87.9315 332.335 81.2158 339.051 81.2158 347.335C81.2158 355.62 87.9315 362.335 96.2158 362.335Z" fill="url(#paint4_linear_867_583)"/>
<path fill-rule="evenodd" clip-rule="evenodd" d="M88.4591 340.541C87.9729 341.027 87.9815 341.81 88.4675 342.296L93.5068 347.336L88.4675 352.375C87.9813 352.861 87.9729 353.644 88.4591 354.13L89.4167 355.088C89.9029 355.574 90.6943 355.574 91.1805 355.088L96.2197 350.048L101.259 355.088C101.745 355.574 102.52 355.574 103.006 355.088L103.963 354.13C104.45 353.644 104.458 352.861 103.972 352.375L98.9326 347.336L103.972 342.296C104.458 341.81 104.449 341.027 103.963 340.541L103.006 339.583C102.52 339.097 101.745 339.097 101.259 339.583L96.2197 344.623L91.1805 339.583C90.6943 339.097 89.9029 339.097 89.4167 339.583L88.4591 340.541Z" fill="#646464"/>
<path d="M414.787 110.449C424.396 110.449 432.186 102.659 432.186 93.0495C432.186 83.4402 424.396 75.6504 414.787 75.6504C405.178 75.6504 397.388 83.4402 397.388 93.0495C397.388 102.659 405.178 110.449 414.787 110.449Z" fill="white" fill-opacity="0.478261"/>
<path d="M414.787 108.049C423.071 108.049 429.787 101.334 429.787 93.0493C429.787 84.765 423.071 78.0493 414.787 78.0493C406.503 78.0493 399.787 84.765 399.787 93.0493C399.787 101.334 406.503 108.049 414.787 108.049Z" fill="url(#paint5_linear_867_583)"/>
<path fill-rule="evenodd" clip-rule="evenodd" d="M407.03 86.2548C406.544 86.741 406.553 87.524 407.039 88.0102L412.078 93.0494L407.039 98.0886C406.553 98.5748 406.544 99.3578 407.03 99.8439L407.988 100.802C408.474 101.288 409.266 101.288 409.752 100.802L414.791 95.7623L419.83 100.802C420.316 101.288 421.091 101.288 421.577 100.802L422.535 99.844C423.021 99.3578 423.029 98.5748 422.543 98.0886L417.504 93.0494L422.543 88.0102C423.029 87.524 423.021 86.741 422.535 86.2549L421.577 85.2973C421.091 84.8111 420.316 84.8111 419.83 85.2973L414.791 90.3365L409.752 85.2973C409.266 84.8111 408.474 84.8111 407.988 85.2973L407.03 86.2548Z" fill="#646464"/>
<path d="M96.2155 110.449C105.825 110.449 113.615 102.659 113.615 93.0495C113.615 83.4402 105.825 75.6504 96.2155 75.6504C86.6063 75.6504 78.8164 83.4402 78.8164 93.0495C78.8164 102.659 86.6063 110.449 96.2155 110.449Z" fill="white" fill-opacity="0.478261"/>
<path d="M96.2158 108.049C104.5 108.049 111.216 101.334 111.216 93.0493C111.216 84.765 104.5 78.0493 96.2158 78.0493C87.9315 78.0493 81.2158 84.765 81.2158 93.0493C81.2158 101.334 87.9315 108.049 96.2158 108.049Z" fill="url(#paint6_linear_867_583)"/>
<path fill-rule="evenodd" clip-rule="evenodd" d="M88.4591 86.2548C87.9729 86.741 87.9815 87.524 88.4675 88.0102L93.5068 93.0494L88.4675 98.0886C87.9813 98.5748 87.9729 99.3578 88.4591 99.8439L89.4167 100.802C89.9029 101.288 90.6943 101.288 91.1805 100.802L96.2197 95.7623L101.259 100.802C101.745 101.288 102.52 101.288 103.006 100.802L103.963 99.844C104.45 99.3578 104.458 98.5748 103.972 98.0886L98.9326 93.0494L103.972 88.0102C104.458 87.524 104.449 86.741 103.963 86.2549L103.006 85.2973C102.52 84.8111 101.745 84.8111 101.259 85.2973L96.2197 90.3365L91.1805 85.2973C90.6943 84.8111 89.9029 84.8111 89.4167 85.2973L88.4591 86.2548Z" fill="#646464"/>
<path d="M259.646 60.6294L239.467 104.918H254.787V253.84C254.295 254.744 253.779 255.678 253.779 257.551H254.787V290.247L220.381 255.84C215.042 250.501 211.908 246.734 210.17 243.348C208.432 239.962 207.803 236.743 207.803 231.301V212.426C213.45 211.109 218.486 207.923 222.094 203.383C225.702 198.843 227.67 193.217 227.678 187.418C227.678 184.042 227.014 180.698 225.722 177.577C224.43 174.457 222.536 171.622 220.149 169.234C217.761 166.846 214.927 164.951 211.807 163.658C208.688 162.366 205.344 161.7 201.967 161.7C198.59 161.7 195.246 162.366 192.126 163.658C189.007 164.951 186.172 166.846 183.785 169.234C181.397 171.622 179.503 174.457 178.212 177.577C176.92 180.698 176.255 184.042 176.256 187.418C176.26 193.409 178.356 199.21 182.182 203.82C186.007 208.43 191.322 211.559 197.209 212.668V231.301C197.209 237.697 198.181 243.13 200.779 248.192C203.377 253.254 207.311 257.708 212.912 263.309L254.311 304.739L254.787 304.262V330.997C248.718 332.38 243.297 335.781 239.411 340.644C235.526 345.507 233.405 351.545 233.396 357.77C233.396 365.064 236.294 372.058 241.451 377.216C246.608 382.373 253.603 385.27 260.896 385.27C264.508 385.27 268.084 384.559 271.42 383.177C274.757 381.795 277.788 379.769 280.342 377.216C282.895 374.662 284.921 371.63 286.303 368.294C287.685 364.957 288.396 361.381 288.396 357.77C288.389 351.259 286.072 344.962 281.858 339.999C277.643 335.037 271.804 331.73 265.381 330.668V256.872C266.459 255.425 268.141 253.441 270.225 251.176C274.438 246.596 280.202 240.894 285.967 235.379C297.497 224.351 309.053 214.028 309.053 214.028L309.295 213.825L309.467 213.614C313.526 209.084 318.588 203.015 318.92 193.098V193.004V165.989H334.99C335.69 165.989 336.256 165.423 336.256 164.723V123.676C336.256 122.977 335.69 122.418 334.99 122.418H293.943C293.244 122.418 292.678 122.977 292.678 123.676V164.723C292.678 165.423 293.244 165.989 293.943 165.989H308.318V192.801C308.07 199.619 305.591 202.087 301.584 206.559C301.152 206.944 290.119 216.749 278.639 227.731C273.922 232.243 269.391 236.762 265.381 240.95V104.919H279.826L259.646 60.6294Z" fill="#527262"/>
<path opacity="0.343" d="M142.5 504.143C217.255 504.143 277.857 443.542 277.857 368.786C277.857 294.03 217.255 233.429 142.5 233.429C67.744 233.429 7.14258 294.03 7.14258 368.786C7.14258 443.542 67.744 504.143 142.5 504.143Z" fill="url(#paint7_radial_867_583)"/>
<path d="M138.402 488.835C202.839 488.835 255.075 436.599 255.075 372.162C255.075 307.726 202.839 255.49 138.402 255.49C73.9656 255.49 21.7295 307.726 21.7295 372.162C21.7295 436.599 73.9656 488.835 138.402 488.835Z" fill="url(#paint8_linear_867_583)"/>
<path d="M138.402 480.263C198.105 480.263 246.503 431.865 246.503 372.162C246.503 312.46 198.105 264.061 138.402 264.061C78.6993 264.061 30.3008 312.46 30.3008 372.162C30.3008 431.865 78.6993 480.263 138.402 480.263Z" fill="url(#paint9_linear_867_583)"/>
<path fill-rule="evenodd" clip-rule="evenodd" d="M114.918 312.108C112.26 312.108 110.114 314.247 110.114 316.905V357.319L89.4341 357.459C88.0017 357.469 86.6014 357.885 85.3965 358.66C84.1915 359.435 83.2315 360.536 82.6281 361.835C82.0248 363.134 81.8029 364.578 81.9885 365.998C82.1741 367.419 82.7594 368.757 83.6763 369.858L133.161 429.475C133.877 430.34 134.776 431.035 135.794 431.51C136.812 431.984 137.923 432.225 139.046 432.216C140.169 432.207 141.276 431.948 142.287 431.458C143.297 430.967 144.185 430.258 144.887 429.381L193.223 369.061C194.116 367.945 194.674 366.598 194.832 365.178C194.991 363.757 194.743 362.32 194.119 361.035C193.494 359.749 192.517 358.667 191.302 357.914C190.087 357.161 188.684 356.768 187.254 356.78L166.684 356.92V316.905C166.684 314.247 164.545 312.108 161.887 312.108H114.918Z" fill="url(#paint10_linear_867_583)"/>
<defs>
<linearGradient id="paint0_linear_867_583" x1="36.3818" y1="257.95" x2="476.129" y2="257.95" gradientUnits="userSpaceOnUse">
<stop stop-color="#BAC0C3"/>
<stop offset="0.134923" stop-color="#EAECED"/>
<stop offset="0.251873" stop-color="#D1D6D8"/>
<stop offset="0.784647" stop-color="#C8CBCB"/>
<stop offset="0.911343" stop-color="#D2D7DA"/>
<stop offset="1" stop-color="#AFB5B8"/>
</linearGradient>
<linearGradient id="paint1_linear_867_583" x1="94.9533" y1="82.9497" x2="386.255" y2="374.252" gradientUnits="userSpaceOnUse">
<stop stop-color="#DCE2E4"/>
<stop offset="1" stop-color="#ACAEAE"/>
</linearGradient>
<radialGradient id="paint2_radial_867_583" cx="0" cy="0" r="1" gradientUnits="userSpaceOnUse" gradientTransform="translate(382.164 440.802) scale(19.6429)">
<stop stop-color="#9BECBC"/>
<stop offset="0.872726" stop-color="#4EBC87" stop-opacity="0.984314"/>
<stop offset="1" stop-color="#328B5F" stop-opacity="0.983696"/>
</radialGradient>
<linearGradient id="paint3_linear_867_583" x1="417.97" y1="361.983" x2="417.97" y2="337.234" gradientUnits="userSpaceOnUse">
<stop stop-color="#646464"/>
<stop offset="1" stop-color="#C9C9C9" stop-opacity="0.929412"/>
</linearGradient>
<linearGradient id="paint4_linear_867_583" x1="99.3986" y1="361.983" x2="99.3986" y2="337.234" gradientUnits="userSpaceOnUse">
<stop stop-color="#646464"/>
<stop offset="1" stop-color="#C9C9C9" stop-opacity="0.929412"/>
</linearGradient>
<linearGradient id="paint5_linear_867_583" x1="417.97" y1="107.697" x2="417.97" y2="82.9478" gradientUnits="userSpaceOnUse">
<stop stop-color="#646464"/>
<stop offset="1" stop-color="#C9C9C9" stop-opacity="0.929412"/>
</linearGradient>
<linearGradient id="paint6_linear_867_583" x1="99.3986" y1="107.697" x2="99.3986" y2="82.9478" gradientUnits="userSpaceOnUse">
<stop stop-color="#646464"/>
<stop offset="1" stop-color="#C9C9C9" stop-opacity="0.929412"/>
</linearGradient>
<radialGradient id="paint7_radial_867_583" cx="0" cy="0" r="1" gradientUnits="userSpaceOnUse" gradientTransform="translate(142.5 368.786) scale(135.357)">
<stop/>
<stop offset="0.59194" stop-opacity="0.835294"/>
<stop offset="0.738035" stop-opacity="0.607843"/>
<stop offset="0.803526" stop-opacity="0.501961"/>
<stop offset="0.929471" stop-opacity="0.207843"/>
<stop offset="1" stop-opacity="0"/>
</radialGradient>
<linearGradient id="paint8_linear_867_583" x1="151.015" y1="258.591" x2="151.015" y2="480.734" gradientUnits="userSpaceOnUse">
<stop stop-color="#9CD035"/>
<stop offset="1" stop-color="#0CCF89"/>
</linearGradient>
<linearGradient id="paint9_linear_867_583" x1="138.158" y1="281.448" x2="138.158" y2="532.162" gradientUnits="userSpaceOnUse">
<stop stop-color="#06CF8C"/>
<stop offset="1" stop-color="#E7D00A"/>
</linearGradient>
<linearGradient id="paint10_linear_867_583" x1="137.3" y1="324.685" x2="137.3" y2="401.457" gradientUnits="userSpaceOnUse">
<stop stop-color="white"/>
<stop offset="1" stop-color="#FCECD0"/>
</linearGradient>
</defs>
</svg>
