<svg width="1024" height="1024" viewBox="0 0 1024 1024" fill="none" xmlns="http://www.w3.org/2000/svg">
<mask id="mask0_876_237" style="mask-type:alpha" maskUnits="userSpaceOnUse" x="72" y="72" width="880" height="880">
<path d="M747.69 72H276.31C163.473 72 72 163.473 72 276.31V747.69C72 860.527 163.473 952 276.31 952H747.69C860.527 952 952 860.527 952 747.69V276.31C952 163.473 860.527 72 747.69 72Z" fill="#F5F4F1"/>
</mask>
<g mask="url(#mask0_876_237)">
<path d="M747.69 72H276.31C163.473 72 72 163.473 72 276.31V747.69C72 860.527 163.473 952 276.31 952H747.69C860.527 952 952 860.527 952 747.69V276.31C952 163.473 860.527 72 747.69 72Z" fill="white"/>
<path d="M952 72H72V346H952V72Z" fill="#F3554C"/>
<g filter="url(#filter0_i_876_237)">
<path d="M414.35 147H443.666V232.26C443.626 240.249 441.724 247.233 437.959 253.214C434.195 259.155 428.988 263.772 422.34 267.064C415.732 270.355 408.082 272 399.392 272C391.702 272 384.714 270.656 378.426 267.967C372.178 265.276 367.192 261.102 363.467 255.442C359.783 249.782 357.961 242.537 358.001 233.705H387.617C387.737 236.877 388.338 239.586 389.419 241.834C390.541 244.042 392.083 245.708 394.045 246.832C396.008 247.956 398.35 248.518 401.074 248.518C403.917 248.518 406.32 247.916 408.283 246.711C410.245 245.467 411.727 243.641 412.728 241.232C413.769 238.824 414.31 235.833 414.35 232.26V147ZM536.765 147H566.442V226.54C566.442 235.733 564.26 243.741 559.894 250.565C555.53 257.349 549.442 262.608 541.632 266.34C533.822 270.033 524.751 271.88 514.418 271.88C503.966 271.88 494.834 270.033 487.024 266.34C479.215 262.608 473.148 257.349 468.822 250.565C464.497 243.741 462.334 235.733 462.334 226.54V147H492.071V223.951C492.071 228.206 492.993 232 494.834 235.331C496.716 238.663 499.34 241.272 502.704 243.159C506.068 245.046 509.973 245.989 514.418 245.989C518.864 245.989 522.749 245.046 526.073 243.159C529.437 241.272 532.06 238.663 533.943 235.331C535.825 232 536.765 228.206 536.765 223.951V147ZM585.081 270.315V147H614.817V246.109H666V270.315H585.081Z" fill="#F8F7F5"/>
</g>
</g>
<path d="M416.943 442V811.136H384V480H382.5L284 546L285.5 510.5L382.5 442H416.943ZM533 811.136L703 476V474H499.5V442H739.5V476L570 811.136H533Z" fill="#2C2C2C"/>
<defs>
<filter id="filter0_i_876_237" x="358" y="147" width="308" height="127" filterUnits="userSpaceOnUse" color-interpolation-filters="sRGB">
<feFlood flood-opacity="0" result="BackgroundImageFix"/>
<feBlend mode="normal" in="SourceGraphic" in2="BackgroundImageFix" result="shape"/>
<feColorMatrix in="SourceAlpha" type="matrix" values="0 0 0 0 0 0 0 0 0 0 0 0 0 0 0 0 0 0 127 0" result="hardAlpha"/>
<feOffset dy="2"/>
<feGaussianBlur stdDeviation="1.5"/>
<feComposite in2="hardAlpha" operator="arithmetic" k2="-1" k3="1"/>
<feColorMatrix type="matrix" values="0 0 0 0 0 0 0 0 0 0 0 0 0 0 0 0 0 0 0.7 0"/>
<feBlend mode="normal" in2="shape" result="effect1_innerShadow_876_237"/>
</filter>
</defs>
</svg>
