<svg width="1024" height="1024" viewBox="0 0 1024 1024" fill="none" xmlns="http://www.w3.org/2000/svg">
<path d="M751.929 63.9805H272.01C157.118 63.9805 63.9805 157.118 63.9805 272.01V751.929C63.9805 866.82 157.118 959.958 272.01 959.958H751.929C866.82 959.958 959.958 866.82 959.958 751.929V272.01C959.958 157.118 866.82 63.9805 751.929 63.9805Z" fill="url(#paint0_linear_892_64)"/>
<path opacity="0.01" d="M264.27 32.0527C136.307 32.0527 32.0508 139.817 32.0508 271.891V783.982C32.0508 916.056 136.368 1023.94 264.27 1023.94H759.791C887.632 1023.94 992.009 916.117 992.009 783.982V271.952C992.009 139.877 887.632 31.9922 759.791 31.9922L264.27 32.0527ZM279.751 63.4989H744.249C855.762 63.4989 945.626 156.265 945.626 271.528V751.507C945.626 866.77 855.823 959.537 744.249 959.537H279.811C168.237 959.537 78.4341 866.77 78.4341 751.507V271.528C78.4341 156.265 168.237 63.4989 279.811 63.4989H279.751Z" fill="black"/>
<path opacity="0.01" d="M263.604 48.0175C144.653 48.0175 48.0762 147.98 48.0762 270.923V784.949C48.0762 908.013 144.653 1007.98 263.604 1007.98H760.456C879.407 1007.98 975.984 908.013 975.984 784.949V270.923C975.984 147.92 879.407 47.957 760.456 47.957L263.604 48.0175ZM280.053 63.4988H744.007C855.399 63.4988 945.082 156.265 945.082 271.528V751.507C945.082 866.77 855.399 959.537 744.007 959.537H279.993C168.6 959.537 78.9177 866.77 78.9177 751.507V271.528C78.9177 156.265 168.661 63.4988 280.053 63.4988Z" fill="black"/>
<path opacity="0.03" d="M260.641 63.9844C147.798 63.9844 56.543 157.053 56.543 272.014V784.044C56.543 898.944 151.487 992.013 264.27 992.013H760.154C872.997 992.013 967.397 899.004 967.397 783.984V272.014C967.397 157.114 876.082 64.0449 763.298 64.0449H757.432C865.922 69.3061 951.795 159.714 951.795 271.59V751.57C951.795 866.832 860.721 959.599 747.575 959.599H276.486C163.339 959.599 72.2661 866.832 72.2661 751.57V271.53C72.2661 159.654 158.139 69.2456 266.628 63.9844H260.641Z" fill="black"/>
<path opacity="0.03" d="M64.0005 751.512V784.008C64.0005 890.377 158.337 976.009 264.706 976.009H760.086C866.454 976.009 960.007 890.377 960.007 784.008V752.136C959.988 779.418 954.591 806.428 944.124 831.622C933.657 856.816 918.325 879.7 899.007 898.964C879.688 918.227 856.761 933.493 831.537 943.889C806.313 954.284 779.287 959.604 752.005 959.545H272.034C244.698 959.606 217.618 954.267 192.351 943.834C167.083 933.401 144.126 918.08 124.796 898.75C105.466 879.42 90.1445 856.462 79.7115 831.195C69.2785 805.928 63.9393 778.848 64.0005 751.512Z" fill="black"/>
<path opacity="0.05" d="M63.9805 720V755.8C63.9805 873.059 159.105 967.458 265.479 967.458H758.943C865.377 967.458 960.018 873.059 960.018 755.8V720.726C959.655 847.418 867.07 949.316 751.989 949.316H272.01C156.808 949.316 63.9805 846.995 63.9805 720Z" fill="black"/>
<g opacity="0.15" filter="url(#filter0_f_892_64)">
<path d="M336.415 231.191C265.48 231.191 208.393 288.339 208.393 359.214V743.222C208.393 777.087 221.455 807.626 242.742 830.425L243.83 831.634C245.765 833.63 247.7 835.504 249.757 837.379L254.171 841.431L256.348 843.124C269.885 854.325 285.592 862.605 302.483 867.445C319.373 872.284 337.082 873.577 354.497 871.244H724.112C740.935 871.284 757.601 868 773.151 861.58C788.701 855.161 802.83 845.732 814.726 833.836C826.622 821.94 836.051 807.811 842.47 792.261C848.89 776.711 852.174 760.045 852.134 743.222C852.16 719.163 845.383 695.587 832.586 675.214C819.789 654.841 801.492 638.501 779.808 628.08C795.456 607.998 804.74 583.693 806.464 558.293C808.188 532.892 802.275 507.556 789.484 485.543C776.435 462.884 756.739 444.78 733.062 433.683C709.385 422.585 682.871 419.03 657.107 423.498C659.371 399.147 654.59 374.659 643.333 352.948C632.075 331.237 614.816 313.219 593.61 301.038C572.136 288.582 547.495 282.657 522.706 283.989C497.916 285.321 474.052 293.852 454.036 308.537C444.158 285.566 427.75 266.002 406.851 252.274C385.952 238.545 361.481 231.256 336.476 231.312L336.415 231.191Z" fill="black"/>
</g>
<path d="M851.709 703.972C851.749 720.795 848.465 737.461 842.045 753.011C835.626 768.562 826.197 782.691 814.301 794.587C802.405 806.482 788.276 815.911 772.726 822.331C757.175 828.75 740.51 832.034 723.687 831.995H339.679C268.804 831.995 211.717 774.907 211.717 703.972C211.717 633.036 268.804 575.949 339.679 575.949H723.687C794.622 575.949 851.709 633.036 851.709 703.972Z" fill="url(#paint1_linear_892_64)" stroke="#7F7F7F" stroke-opacity="0.2" stroke-width="0.200319" stroke-linecap="round" stroke-linejoin="round"/>
<path d="M511.969 783.982L511.969 624.029C511.969 615.179 504.794 608.004 495.943 608.004H447.988C439.137 608.004 431.962 615.179 431.962 624.029L431.962 783.982C431.962 792.833 439.137 800.008 447.988 800.008H495.943C504.794 800.008 511.969 792.833 511.969 783.982Z" stroke="#FDFDFD" stroke-opacity="0.15" stroke-width="0.200319" stroke-linecap="round" stroke-linejoin="round"/>
<path d="M608.002 783.982L608.002 624.029C608.002 615.179 600.827 608.004 591.976 608.004H544.021C535.17 608.004 527.995 615.179 527.995 624.029L527.995 783.982C527.995 792.833 535.17 800.008 544.021 800.008H591.976C600.827 800.008 608.002 792.833 608.002 783.982Z" stroke="#FDFDFD" stroke-opacity="0.15" stroke-width="0.200319" stroke-linecap="round" stroke-linejoin="round"/>
<path d="M515.719 783.982L515.719 624.029C515.719 615.179 508.544 608.004 499.693 608.004H451.738C442.887 608.004 435.712 615.179 435.712 624.029L435.712 783.982C435.712 792.833 442.887 800.008 451.738 800.008H499.693C508.544 800.008 515.719 792.833 515.719 783.982Z" fill="#BB1112" stroke="black" stroke-opacity="0.15" stroke-width="0.200319" stroke-linecap="round" stroke-linejoin="round"/>
<path d="M703.973 783.982L703.973 624.029C703.973 615.179 696.798 608.004 687.947 608.004H639.992C631.141 608.004 623.966 615.179 623.966 624.029L623.966 783.982C623.966 792.833 631.141 800.008 639.992 800.008H687.947C696.798 800.008 703.973 792.833 703.973 783.982Z" stroke="#FDFDFD" stroke-opacity="0.15" stroke-width="0.200319" stroke-linecap="round" stroke-linejoin="round"/>
<path d="M611.691 783.982L611.691 624.029C611.691 615.179 604.517 608.004 595.666 608.004H547.71C538.86 608.004 531.685 615.179 531.685 624.029L531.685 783.982C531.685 792.833 538.86 800.008 547.71 800.008H595.666C604.517 800.008 611.691 792.833 611.691 783.982Z" fill="#C72020" stroke="black" stroke-opacity="0.15" stroke-width="0.200319" stroke-linecap="round" stroke-linejoin="round"/>
<path d="M815.971 703.975C815.971 654.87 779.444 614.655 731.912 608.789C728.512 609.638 725.493 611.599 723.335 614.36C721.176 617.121 720.002 620.524 719.999 624.028V783.981C720.016 787.475 721.196 790.864 723.353 793.613C725.511 796.362 728.522 798.313 731.912 799.16C755.135 796.308 776.509 785.049 791.996 767.511C807.484 749.974 816.012 727.372 815.971 703.975Z" stroke="#FDFDFD" stroke-opacity="0.15" stroke-width="0.200319" stroke-linecap="round" stroke-linejoin="round"/>
<path d="M707.723 783.982L707.723 624.029C707.723 615.179 700.548 608.004 691.697 608.004H643.742C634.891 608.004 627.716 615.179 627.716 624.029L627.716 783.982C627.716 792.833 634.891 800.008 643.742 800.008H691.697C700.548 800.008 707.723 792.833 707.723 783.982Z" fill="#D22B2B" stroke="black" stroke-opacity="0.15" stroke-width="0.200319" stroke-linecap="round" stroke-linejoin="round"/>
<path d="M819.72 703.975C819.72 654.87 783.133 614.655 735.661 608.789C732.25 609.627 729.217 611.582 727.047 614.345C724.877 617.107 723.694 620.516 723.688 624.028V783.981C723.708 787.483 724.897 790.879 727.066 793.628C729.235 796.378 732.26 798.325 735.661 799.16C758.884 796.307 780.258 785.049 795.745 767.511C811.233 749.974 819.761 727.372 819.72 703.975Z" fill="#DB3636" stroke="black" stroke-opacity="0.15" stroke-width="0.200319" stroke-linecap="round" stroke-linejoin="round"/>
<path d="M789.11 446.279C824.578 507.711 803.682 585.694 742.25 621.162L409.69 813.166C348.31 848.603 270.328 827.708 234.86 766.276C199.392 704.844 220.318 626.914 281.75 591.446L614.31 399.442C675.69 364.004 753.672 384.9 789.11 446.279Z" fill="url(#paint2_linear_892_64)" stroke="#7F7F7F" stroke-opacity="0.2" stroke-width="0.200319" stroke-linecap="round" stroke-linejoin="round"/>
<path d="M534.674 683.744L452.525 546.763C447.98 539.184 438.315 536.792 430.939 541.423L390.971 566.51C383.595 571.14 381.3 581.038 385.845 588.617L467.994 725.599C472.54 733.178 482.204 735.569 489.581 730.939L529.548 705.852C536.925 701.222 539.22 691.324 534.674 683.744Z" stroke="#FDFDFD" stroke-opacity="0.15" stroke-width="0.200319" stroke-linecap="round" stroke-linejoin="round"/>
<path d="M617.84 635.725L535.691 498.744C531.146 491.164 521.481 488.773 514.105 493.403L474.137 518.49C466.761 523.12 464.466 533.018 469.011 540.598L551.16 677.579C555.706 685.159 565.37 687.55 572.747 682.919L612.714 657.832C620.091 653.202 622.386 643.304 617.84 635.725Z" stroke="#FDFDFD" stroke-opacity="0.15" stroke-width="0.200319" stroke-linecap="round" stroke-linejoin="round"/>
<path d="M537.92 681.869L455.771 544.888C451.226 537.309 441.561 534.917 434.185 539.548L394.217 564.635C386.841 569.265 384.546 579.163 389.091 586.742L471.24 723.724C475.786 731.303 485.45 733.694 492.827 729.064L532.794 703.977C540.171 699.347 542.466 689.449 537.92 681.869Z" fill="#CE5801" stroke="black" stroke-opacity="0.15" stroke-width="0.200319" stroke-linecap="round" stroke-linejoin="round"/>
<path d="M700.953 587.74L618.805 450.759C614.259 443.18 604.594 440.789 597.218 445.419L557.25 470.506C549.874 475.136 547.579 485.034 552.125 492.613L634.273 629.595C638.819 637.174 648.484 639.565 655.86 634.935L695.828 609.848C703.204 605.218 705.499 595.32 700.953 587.74Z" stroke="#FDFDFD" stroke-opacity="0.15" stroke-width="0.200319" stroke-linecap="round" stroke-linejoin="round"/>
<path d="M621.035 633.881L538.887 496.9C534.341 489.32 524.676 486.929 517.3 491.559L477.332 516.646C469.956 521.277 467.661 531.174 472.207 538.754L554.355 675.735C558.901 683.315 568.566 685.706 575.942 681.076L615.91 655.989C623.286 651.358 625.581 641.461 621.035 633.881Z" fill="#DD6D01" stroke="black" stroke-opacity="0.15" stroke-width="0.200319" stroke-linecap="round" stroke-linejoin="round"/>
<path d="M756.6 462.985C731.243 421.061 680.031 405.878 637.383 425.791C634.988 428.299 633.484 431.556 633.111 435.045C632.738 438.534 633.516 442.055 635.323 445.049L717.921 581.612C719.74 584.586 722.473 586.86 725.691 588.076C728.908 589.292 732.426 589.379 735.689 588.325C753.573 573.713 765.574 552.895 769.427 529.801C773.28 506.708 768.717 482.939 756.6 462.985Z" stroke="#FDFDFD" stroke-opacity="0.15" stroke-width="0.200319" stroke-linecap="round" stroke-linejoin="round"/>
<path d="M704.202 585.865L622.053 448.884C617.507 441.305 607.843 438.914 600.466 443.544L560.498 468.631C553.122 473.261 550.827 483.159 555.373 490.738L637.521 627.72C642.067 635.299 651.732 637.69 659.108 633.06L699.076 607.973C706.452 603.343 708.747 593.445 704.202 585.865Z" fill="#E57D00" stroke="black" stroke-opacity="0.15" stroke-width="0.200319" stroke-linecap="round" stroke-linejoin="round"/>
<path d="M761.362 462.322C749.7 442.051 731.02 426.751 708.85 419.309C686.679 411.866 662.551 412.797 641.02 421.926C638.507 424.355 636.874 427.553 636.382 431.014C635.889 434.475 636.563 438.001 638.299 441.035L718.245 579.58C720.008 582.611 722.733 584.965 725.987 586.269C729.241 587.572 732.838 587.751 736.205 586.777C754.891 572.697 767.773 552.263 772.419 529.332C777.066 506.402 773.093 482.565 761.362 462.322Z" fill="#ED8B01" stroke="black" stroke-opacity="0.15" stroke-width="0.200319" stroke-linecap="round" stroke-linejoin="round"/>
<path d="M593.137 261.747C654.569 297.215 675.464 375.197 639.996 436.629L447.993 769.189C412.555 830.569 334.573 851.464 273.141 815.996C211.709 780.529 190.866 702.576 226.333 641.144L418.337 308.584C453.775 247.205 531.757 226.309 593.137 261.747Z" fill="url(#paint3_linear_892_64)" stroke="#7F7F7F" stroke-opacity="0.2" stroke-width="0.200319" stroke-linecap="round" stroke-linejoin="round"/>
<path d="M492.771 598.549L356.415 516.235C348.87 511.681 338.933 513.95 334.22 521.305L308.682 561.154C303.969 568.508 306.265 578.162 313.81 582.717L450.165 665.031C457.71 669.586 467.647 667.316 472.36 659.961L497.898 620.113C502.611 612.758 500.315 603.104 492.771 598.549Z" stroke="#FDFDFD" stroke-opacity="0.15" stroke-width="0.200319" stroke-linecap="round" stroke-linejoin="round"/>
<path d="M540.788 515.381L404.433 433.067C396.888 428.513 386.951 430.782 382.238 438.137L356.7 477.986C351.987 485.34 354.282 494.994 361.827 499.549L498.183 581.863C505.728 586.418 515.665 584.148 520.378 576.793L545.915 536.945C550.629 529.59 548.333 519.936 540.788 515.381Z" stroke="#FDFDFD" stroke-opacity="0.15" stroke-width="0.200319" stroke-linecap="round" stroke-linejoin="round"/>
<path d="M494.646 595.299L358.29 512.985C350.745 508.431 340.808 510.7 336.095 518.055L310.557 557.904C305.844 565.258 308.14 574.912 315.685 579.467L452.04 661.781C459.585 666.336 469.522 664.066 474.235 656.711L499.773 616.863C504.486 609.508 502.19 599.854 494.646 595.299Z" fill="#D68F01" stroke="black" stroke-opacity="0.15" stroke-width="0.200319" stroke-linecap="round" stroke-linejoin="round"/>
<path d="M588.773 432.268L452.417 349.954C444.872 345.399 434.935 347.669 430.222 355.024L404.684 394.872C399.971 402.227 402.267 411.881 409.812 416.436L546.167 498.75C553.712 503.304 563.649 501.035 568.362 493.68L593.9 453.831C598.613 446.477 596.317 436.823 588.773 432.268Z" stroke="#FDFDFD" stroke-opacity="0.15" stroke-width="0.200319" stroke-linecap="round" stroke-linejoin="round"/>
<path d="M542.632 512.186L406.277 429.872C398.732 425.317 388.794 427.587 384.081 434.941L358.544 474.79C353.831 482.145 356.126 491.799 363.671 496.354L500.026 578.668C507.571 583.222 517.508 580.953 522.222 573.598L547.759 533.749C552.472 526.395 550.177 516.74 542.632 512.186Z" fill="#E3A101" stroke="black" stroke-opacity="0.15" stroke-width="0.200319" stroke-linecap="round" stroke-linejoin="round"/>
<path d="M576.825 294.327C535.102 268.937 481.485 278.538 451.192 315.06C450.103 318.328 450.161 321.854 451.358 325.078C452.555 328.302 454.821 331.039 457.797 332.853L593.702 415.56C596.68 417.353 600.188 418.123 603.672 417.749C607.157 417.375 610.418 415.878 612.943 413.495C622.884 392.695 624.699 369.087 618.044 347.131C611.39 325.175 596.726 306.391 576.825 294.327Z" stroke="#FDFDFD" stroke-opacity="0.15" stroke-width="0.200319" stroke-linecap="round" stroke-linejoin="round"/>
<path d="M590.648 429.022L454.292 346.708C446.747 342.153 436.81 344.423 432.097 351.777L406.559 391.626C401.846 398.981 404.142 408.635 411.687 413.19L548.042 495.504C555.587 500.058 565.524 497.789 570.237 490.434L595.775 450.585C600.488 443.231 598.192 433.576 590.648 429.022Z" fill="#EAAD01" stroke="black" stroke-opacity="0.15" stroke-width="0.200319" stroke-linecap="round" stroke-linejoin="round"/>
<path d="M577.158 289.488C556.923 277.751 533.09 273.829 510.16 278.464C487.23 283.099 466.792 295.97 452.704 314.645C451.729 318.013 451.908 321.609 453.212 324.864C454.516 328.118 456.87 330.843 459.9 332.606L598.445 412.613C601.486 414.34 605.016 415.005 608.477 414.501C611.938 413.997 615.133 412.354 617.555 409.831C626.683 388.3 627.614 364.172 620.172 342.001C612.73 319.83 597.429 301.151 577.158 289.488Z" fill="#F2B800" stroke="black" stroke-opacity="0.15" stroke-width="0.200319" stroke-linecap="round" stroke-linejoin="round"/>
<path d="M335.992 192.004C406.927 192.004 464.014 249.091 464.014 320.027V704.034C464.014 774.909 406.927 831.996 335.992 831.996C265.056 831.996 208.029 774.909 208.029 703.974V319.966C208.029 249.091 265.116 192.004 335.992 192.004Z" fill="url(#paint4_linear_892_64)" stroke="#7F7F7F" stroke-opacity="0.2" stroke-width="0.200319" stroke-linecap="round" stroke-linejoin="round"/>
<path d="M415.998 531.746H256.045C247.194 531.746 240.02 538.921 240.02 547.772V595.727C240.02 604.578 247.194 611.753 256.045 611.753H415.998C424.848 611.753 432.023 604.578 432.023 595.727V547.772C432.023 538.921 424.848 531.746 415.998 531.746Z" stroke="#FDFDFD" stroke-opacity="0.15" stroke-width="0.200319" stroke-linecap="round" stroke-linejoin="round"/>
<path d="M415.998 435.715H256.045C247.194 435.715 240.02 442.89 240.02 451.74V499.696C240.02 508.547 247.194 515.721 256.045 515.721H415.998C424.848 515.721 432.023 508.547 432.023 499.696V451.74C432.023 442.89 424.848 435.715 415.998 435.715Z" stroke="#FDFDFD" stroke-opacity="0.15" stroke-width="0.200319" stroke-linecap="round" stroke-linejoin="round"/>
<path d="M415.998 527.996H256.045C247.194 527.996 240.02 535.171 240.02 544.022V591.977C240.02 600.828 247.194 608.003 256.045 608.003H415.998C424.848 608.003 432.023 600.828 432.023 591.977V544.022C432.023 535.171 424.848 527.996 415.998 527.996Z" fill="#29860A" stroke="black" stroke-opacity="0.15" stroke-width="0.200319" stroke-linecap="round" stroke-linejoin="round"/>
<path d="M415.998 339.742H256.045C247.194 339.742 240.02 346.917 240.02 355.768V403.723C240.02 412.574 247.194 419.749 256.045 419.749H415.998C424.848 419.749 432.023 412.574 432.023 403.723V355.768C432.023 346.917 424.848 339.742 415.998 339.742Z" stroke="#FDFDFD" stroke-opacity="0.15" stroke-width="0.200319" stroke-linecap="round" stroke-linejoin="round"/>
<path d="M415.998 432.027H256.045C247.194 432.027 240.02 439.202 240.02 448.053V496.008C240.02 504.859 247.194 512.034 256.045 512.034H415.998C424.848 512.034 432.023 504.859 432.023 496.008V448.053C432.023 439.202 424.848 432.027 415.998 432.027Z" fill="#3B9A1A" stroke="black" stroke-opacity="0.15" stroke-width="0.200319" stroke-linecap="round" stroke-linejoin="round"/>
<path d="M335.992 227.746C286.888 227.746 246.673 264.272 240.807 311.805C241.656 315.205 243.617 318.224 246.378 320.382C249.139 322.54 252.541 323.715 256.046 323.718H415.999C419.493 323.701 422.882 322.521 425.631 320.363C428.379 318.206 430.331 315.195 431.178 311.805C428.325 288.582 417.067 267.208 399.529 251.721C381.991 236.233 359.389 227.705 335.992 227.746Z" stroke="#FDFDFD" stroke-opacity="0.15" stroke-width="0.200319" stroke-linecap="round" stroke-linejoin="round"/>
<path d="M415.998 335.992H256.045C247.194 335.992 240.02 343.167 240.02 352.018V399.973C240.02 408.824 247.194 415.999 256.045 415.999H415.998C424.848 415.999 432.023 408.824 432.023 399.973V352.018C432.023 343.167 424.848 335.992 415.998 335.992Z" fill="#4EAA2A" stroke="black" stroke-opacity="0.15" stroke-width="0.200319" stroke-linecap="round" stroke-linejoin="round"/>
<path d="M335.992 223.996C286.888 223.996 246.673 260.583 240.807 308.055C241.642 311.456 243.589 314.481 246.338 316.65C249.088 318.819 252.483 320.008 255.986 320.028H416.059C419.561 320.008 422.957 318.819 425.706 316.65C428.456 314.481 430.403 311.456 431.238 308.055C428.386 284.832 417.127 263.458 399.59 247.971C382.052 232.483 359.389 223.955 335.992 223.996Z" fill="#5DB837" stroke="black" stroke-opacity="0.15" stroke-width="0.200319" stroke-linecap="round" stroke-linejoin="round"/>
<path d="M335.991 800.005C380.177 800.005 415.998 764.185 415.998 719.999C415.998 675.812 380.177 639.992 335.991 639.992C291.805 639.992 255.984 675.812 255.984 719.999C255.984 764.185 291.805 800.005 335.991 800.005Z" fill="url(#paint5_radial_892_64)"/>
<path d="M335.991 767.954C371.327 767.954 399.972 739.309 399.972 703.973C399.972 668.637 371.327 639.992 335.991 639.992C300.655 639.992 272.01 668.637 272.01 703.973C272.01 739.309 300.655 767.954 335.991 767.954Z" fill="url(#paint6_linear_892_64)"/>
<path opacity="0.35" d="M335.991 767.954C371.327 767.954 399.972 739.309 399.972 703.973C399.972 668.637 371.327 639.992 335.991 639.992C300.655 639.992 272.01 668.637 272.01 703.973C272.01 739.309 300.655 767.954 335.991 767.954Z" fill="url(#paint7_radial_892_64)"/>
<path d="M335.992 742.917C357.501 742.917 374.937 725.481 374.937 703.972C374.937 682.464 357.501 665.027 335.992 665.027C314.483 665.027 297.047 682.464 297.047 703.972C297.047 725.481 314.483 742.917 335.992 742.917Z" fill="url(#paint8_linear_892_64)"/>
<path d="M335.992 728.406C349.485 728.406 360.423 717.467 360.423 703.974C360.423 690.481 349.485 679.543 335.992 679.543C322.499 679.543 311.561 690.481 311.561 703.974C311.561 717.467 322.499 728.406 335.992 728.406Z" fill="url(#paint9_linear_892_64)"/>
<g filter="url(#filter1_f_892_64)">
<path d="M335.042 640.006C334.802 640.015 334.562 640.026 334.322 640.038C334.887 640.02 335.453 640.009 336.018 640.006C335.693 640.003 335.367 640.003 335.042 640.006ZM295.634 654.39C288.26 660.387 282.315 667.952 278.23 676.535C274.145 685.117 272.023 694.501 272.018 704.006C272.018 720.98 278.76 737.259 290.763 749.261C302.765 761.264 319.044 768.007 336.018 768.007C352.992 768.007 369.271 761.264 381.273 749.261C393.276 737.259 400.018 720.98 400.018 704.006C400.016 694.229 397.774 684.583 393.464 675.807C389.154 667.032 382.89 659.36 375.154 653.382C381.797 658.64 387.132 665.175 390.789 672.534C394.447 679.893 396.34 687.901 396.338 696.006C396.338 703.363 394.777 710.647 391.744 717.443C388.71 724.24 384.264 730.414 378.66 735.615C373.055 740.815 366.402 744.94 359.079 747.752C351.757 750.565 343.91 752.01 335.986 752.007C328.063 752.009 320.218 750.561 312.897 747.748C305.577 744.935 298.926 740.81 293.323 735.61C287.72 730.409 283.275 724.235 280.243 717.44C277.21 710.645 275.65 703.361 275.65 696.006C275.648 688.155 277.426 680.391 280.866 673.219C284.306 666.047 289.332 659.626 295.618 654.374L295.634 654.39Z" fill="url(#paint10_radial_892_64)"/>
</g>
<path opacity="0.35" d="M335.697 665.028C325.414 665.108 315.58 669.25 308.339 676.551C301.098 683.853 297.036 693.721 297.041 704.004C297.043 709.12 298.053 714.186 300.013 718.912C301.973 723.638 304.844 727.932 308.464 731.548C312.083 735.165 316.379 738.033 321.107 739.989C325.834 741.945 330.901 742.95 336.017 742.948C341.135 742.948 346.203 741.94 350.93 739.981C355.658 738.022 359.954 735.151 363.572 731.531C367.19 727.912 370.059 723.615 372.016 718.886C373.973 714.158 374.98 709.09 374.978 703.972C374.973 693.642 370.867 683.736 363.561 676.433C356.255 669.13 346.347 665.028 336.017 665.028C335.911 665.027 335.804 665.027 335.697 665.028ZM335.217 672.004C335.484 672 335.751 672 336.017 672.004C344.504 672.004 352.644 675.375 358.645 681.376C364.646 687.378 368.018 695.517 368.018 704.004C368.018 712.491 364.646 720.63 358.645 726.632C352.644 732.633 344.504 736.004 336.017 736.004C327.53 736.004 319.391 732.633 313.39 726.632C307.389 720.63 304.017 712.491 304.017 704.004C304.014 695.654 307.276 687.633 313.105 681.655C318.934 675.676 326.87 672.212 335.217 672.004Z" fill="url(#paint11_radial_892_64)"/>
<path d="M692.839 292.953L743.436 226.8L691.346 154.062L724.826 154.09L766.333 211.284L704.272 292.953H692.839ZM791.871 293L750.651 235.708L813.229 154H824.378L773.575 220.466L825.352 293H791.871Z" fill="#4E4E4E"/>
<path d="M758.575 180.52C754.544 180.52 750.237 180.832 746.36 181.204C753.267 190.212 758.998 197.84 765.594 206.504C761.892 198.537 754.283 190.897 756.914 186.968C759.517 183.079 764.315 183.734 764.68 183.734C772.372 183.734 779.775 184.602 786.697 186.21L788.32 183.976C779.088 181.599 769.06 180.52 758.575 180.52ZM800.232 187.79L798.738 189.925C820.063 198.276 834.489 214.226 834.489 232.507C834.489 259.426 803.217 281.266 764.68 281.266C726.144 281.266 694.858 259.426 694.858 232.507C694.858 217.848 704.135 204.69 718.81 195.746L714.299 188.871C691.278 198.632 676 215.764 676 235.268C676 265.615 712.991 290.232 758.575 290.232C804.158 290.232 841.163 265.615 841.163 235.268C841.163 215.032 824.712 197.334 800.232 187.79Z" fill="#4E4E4E"/>
<defs>
<filter id="filter0_f_892_64" x="204.779" y="227.578" width="650.969" height="648.406" filterUnits="userSpaceOnUse" color-interpolation-filters="sRGB">
<feFlood flood-opacity="0" result="BackgroundImageFix"/>
<feBlend mode="normal" in="SourceGraphic" in2="BackgroundImageFix" result="shape"/>
<feGaussianBlur stdDeviation="1.80665" result="effect1_foregroundBlur_892_64"/>
</filter>
<filter id="filter1_f_892_64" x="271.938" y="639.924" width="128.16" height="128.164" filterUnits="userSpaceOnUse" color-interpolation-filters="sRGB">
<feFlood flood-opacity="0" result="BackgroundImageFix"/>
<feBlend mode="normal" in="SourceGraphic" in2="BackgroundImageFix" result="shape"/>
<feGaussianBlur stdDeviation="0.0400003" result="effect1_foregroundBlur_892_64"/>
</filter>
<linearGradient id="paint0_linear_892_64" x1="479.964" y1="912.459" x2="479.964" y2="112.477" gradientUnits="userSpaceOnUse">
<stop stop-color="#F1EFEB"/>
<stop offset="1" stop-color="#FDFCFC"/>
</linearGradient>
<linearGradient id="paint1_linear_892_64" x1="291.723" y1="703.972" x2="819.719" y2="703.972" gradientUnits="userSpaceOnUse">
<stop stop-color="#DB2F2F"/>
<stop offset="1" stop-color="#E54243"/>
</linearGradient>
<linearGradient id="paint2_linear_892_64" x1="304.148" y1="726.272" x2="761.405" y2="462.275" gradientUnits="userSpaceOnUse">
<stop stop-color="#F36D01"/>
<stop offset="1" stop-color="#F69901"/>
</linearGradient>
<linearGradient id="paint3_linear_892_64" x1="321.126" y1="732.883" x2="577.142" y2="289.451" gradientUnits="userSpaceOnUse">
<stop stop-color="#FCAA00"/>
<stop offset="1" stop-color="#FDC500"/>
</linearGradient>
<linearGradient id="paint4_linear_892_64" x1="335.992" y1="769.527" x2="335.992" y2="240.02" gradientUnits="userSpaceOnUse">
<stop stop-color="#4DAE33"/>
<stop offset="1" stop-color="#6FC84A"/>
</linearGradient>
<radialGradient id="paint5_radial_892_64" cx="0" cy="0" r="1" gradientUnits="userSpaceOnUse" gradientTransform="translate(336.021 719.953) scale(79.9764 79.9764)">
<stop/>
<stop offset="1" stop-color="#111419" stop-opacity="0"/>
</radialGradient>
<linearGradient id="paint6_linear_892_64" x1="335.144" y1="751.989" x2="335.144" y2="651.966" gradientUnits="userSpaceOnUse">
<stop stop-color="#8290AE"/>
<stop offset="1" stop-color="white"/>
</linearGradient>
<radialGradient id="paint7_radial_892_64" cx="0" cy="0" r="1" gradientUnits="userSpaceOnUse" gradientTransform="translate(335.991 688.008) scale(63.9811)">
<stop stop-opacity="0"/>
<stop offset="0.704" stop-opacity="0"/>
<stop offset="1"/>
</radialGradient>
<linearGradient id="paint8_linear_892_64" x1="335.491" y1="736.902" x2="335.491" y2="672.334" gradientUnits="userSpaceOnUse">
<stop stop-color="#C0C6D4"/>
<stop offset="1" stop-color="#515769"/>
</linearGradient>
<linearGradient id="paint9_linear_892_64" x1="335.649" y1="724.643" x2="335.649" y2="684.15" gradientUnits="userSpaceOnUse">
<stop stop-color="#2F323B"/>
<stop offset="1" stop-color="#111419"/>
</linearGradient>
<radialGradient id="paint10_radial_892_64" cx="0" cy="0" r="1" gradientUnits="userSpaceOnUse" gradientTransform="translate(336.018 704.006) scale(64.0005)">
<stop stop-color="#8290AE"/>
<stop offset="0.75" stop-color="#020403"/>
<stop offset="0.845" stop-color="#2B402C"/>
<stop offset="0.889" stop-color="#3A5635"/>
<stop offset="0.944" stop-color="#4A8242"/>
<stop offset="1" stop-color="#010201"/>
</radialGradient>
<radialGradient id="paint11_radial_892_64" cx="0" cy="0" r="1" gradientUnits="userSpaceOnUse" gradientTransform="translate(335.993 703.977) scale(38.9453 38.9453)">
<stop stop-opacity="0"/>
<stop offset="0.821" stop-opacity="0"/>
<stop offset="1"/>
</radialGradient>
</defs>
</svg>
