<svg width="512" height="512" viewBox="0 0 512 512" fill="none" xmlns="http://www.w3.org/2000/svg">
<path d="M280 32.0003C328 32.0003 480.016 184.24 480.016 232.24V136.024C480.048 122.355 477.379 108.815 472.163 96.1804C466.947 83.5459 459.286 72.0662 449.621 62.4004C439.956 52.7347 428.477 45.0734 415.843 39.8565C403.209 34.6395 389.669 31.9697 376 32.0003H280Z" fill="url(#paint0_linear_823_2)"/>
<path d="M135.76 56.0002C125.28 55.978 114.898 58.026 105.211 62.0264C95.5242 66.0269 86.7228 71.9011 79.312 79.312C71.9011 86.7228 66.0269 95.5242 62.0264 105.211C58.026 114.898 55.978 125.28 56.0002 135.76V375.76C55.978 386.241 58.026 396.622 62.0264 406.309C66.0269 415.996 71.9011 424.798 79.312 432.208C86.7228 439.619 95.5242 445.493 105.211 449.494C114.898 453.494 125.28 455.542 135.76 455.52H375.744C386.225 455.542 396.606 453.494 406.293 449.494C415.98 445.493 424.782 439.619 432.192 432.208C439.603 424.798 445.477 415.996 449.478 406.309C453.478 396.622 455.526 386.241 455.504 375.76V135.76C455.526 125.28 453.478 114.898 449.478 105.211C445.477 95.5242 439.603 86.7228 432.192 79.312C424.782 71.9011 415.98 66.0269 406.293 62.0264C396.606 58.026 386.225 55.978 375.744 56.0002H135.76ZM135.76 64.0002H375.744C415.504 64.0002 447.504 96.0002 447.504 135.76V375.76C447.504 415.52 415.504 447.52 375.744 447.52H135.76C96.0002 447.52 64.0002 415.52 64.0002 375.76V135.76C64.0002 96.0002 96.0002 64.0002 135.76 64.0002Z" fill="white" fill-opacity="0.9"/>
<path d="M392 64H400.008V248H392.008L392 64Z" fill="white"/>
<path d="M448 111.992V119.992H264V111.992H448Z" fill="white"/>
<path d="M136.016 32C125.216 32 114.8 33.624 105.016 36.656C85.7004 42.6592 68.5567 54.1699 55.6884 69.776C42.6344 85.5948 34.576 104.936 32.5364 125.344V125.36C32.1764 128.856 32.0004 132.408 32.0004 136.008V375.992C31.9637 389.662 34.6308 403.204 39.848 415.84C45.0653 428.475 52.7298 439.954 62.4004 449.616C74.3111 461.52 88.9359 470.352 105.016 475.352C111.536 477.368 118.336 478.768 125.344 479.472H125.36C128.864 479.832 132.416 480.008 136.016 480.008H376C386.8 480.008 397.216 478.384 407 475.352C423.078 470.343 437.698 461.505 449.606 449.597C461.513 437.69 470.351 423.069 475.36 406.992C478.392 397.208 480.016 386.8 480.016 375.992V232.232C480.016 184.248 328 32.008 280 32.008L136.016 32Z" fill="url(#paint1_linear_823_2)"/>
<g filter="url(#filter0_d_823_2)">
<path d="M280 32C312 40 320 88 328 120C335.76 151.04 353.44 172.36 400 184C432 192 464 189.12 480 232C480 231.808 479.968 231.616 479.968 231.424C479.088 175.456 347.128 41.52 286.296 32.28C284.176 32.12 282.08 32 280 32Z" fill="url(#paint2_linear_823_2)"/>
</g>
<path d="M254.4 128.792C183.44 128.792 125.896 186.328 125.896 257.296C125.896 328.264 183.432 385.8 254.4 385.8C325.36 385.8 382.904 328.264 382.904 257.296C382.904 186.328 325.368 128.792 254.4 128.792ZM254.4 369.736C192.408 369.736 141.96 319.288 141.96 257.296C141.96 195.304 192.408 144.856 254.4 144.856C316.392 144.856 366.84 195.304 366.84 257.296C366.84 319.288 316.392 369.736 254.4 369.736ZM294.152 211.872L237.368 268.656L214.648 245.936C211.635 242.924 207.549 241.233 203.289 241.233C199.029 241.234 194.944 242.927 191.932 245.94C188.92 248.953 187.229 253.039 187.229 257.299C187.23 261.559 188.923 265.644 191.936 268.656L226.016 302.728C227.507 304.22 229.277 305.403 231.226 306.21C233.174 307.018 235.263 307.433 237.372 307.433C239.481 307.433 241.57 307.018 243.518 306.21C245.467 305.403 247.237 304.22 248.728 302.728L316.864 234.584C319.877 231.571 321.569 227.485 321.569 223.224C321.569 218.963 319.877 214.877 316.864 211.864C313.851 208.851 309.765 207.159 305.504 207.159C301.243 207.159 297.157 208.851 294.144 211.864L294.152 211.872Z" fill="url(#paint3_linear_823_2)" fill-opacity="0.8"/>
<path d="M498.506 362.209C497.242 359.145 495.817 356.144 494.229 353.205C493.333 351.53 492.385 349.884 491.386 348.267C487.077 341.28 481.82 334.678 475.615 328.474C455.303 308.162 430.769 298 402.038 298C373.305 298 348.784 308.161 328.474 328.474C308.161 348.786 298 373.309 298 402.038C298 430.767 308.161 455.304 328.474 475.615C348.785 495.927 373.309 506.076 402.038 506.076C430.769 506.076 455.304 495.925 475.615 475.615C486.801 464.417 494.913 451.942 499.938 438.197C504.026 426.989 506.076 414.943 506.076 402.038C506.076 392.141 504.875 382.74 502.461 373.835C502.187 372.832 501.9 371.833 501.602 370.837C500.7 367.916 499.667 365.036 498.505 362.208L498.506 362.209Z" fill="url(#paint4_linear_823_2)"/>
<path d="M402.038 495.672C453.751 495.672 495.672 453.751 495.672 402.038C495.672 350.326 453.751 308.404 402.038 308.404C350.326 308.404 308.404 350.326 308.404 402.038C308.404 453.751 350.326 495.672 402.038 495.672Z" fill="#666666"/>
<path d="M402.038 495.672C453.751 495.672 495.672 453.751 495.672 402.038C495.672 350.326 453.751 308.404 402.038 308.404C350.326 308.404 308.404 350.326 308.404 402.038C308.404 453.751 350.326 495.672 402.038 495.672Z" fill="url(#paint5_radial_823_2)"/>
<g opacity="0.75" filter="url(#filter1_f_823_2)">
<path d="M446.734 335.016L443.223 344.394C442.994 345.009 443.228 345.826 443.745 346.223L447.877 349.386C448.383 349.772 449.249 349.794 449.782 349.413L457.925 343.6C458.458 343.219 459.269 343.284 459.732 343.752L463.145 347.165C463.618 347.638 463.678 348.439 463.297 348.972L457.484 357.109C457.103 357.643 457.119 358.497 457.517 359.015L460.684 363.146C461.071 363.652 461.904 363.897 462.513 363.668L471.881 360.158C472.496 359.929 473.258 360.201 473.585 360.773L475.996 364.948C476.333 365.53 476.181 366.314 475.675 366.733L467.946 373.096C467.439 373.515 467.233 374.342 467.483 374.941L469.47 379.747C469.715 380.335 470.449 380.787 471.103 380.727L481.069 379.758C481.722 379.693 482.392 380.156 482.56 380.793L483.807 385.452C483.981 386.1 483.633 386.818 483.034 387.09L473.917 391.238C473.318 391.51 472.904 392.256 472.991 392.903L473.672 398.058C473.753 398.69 474.352 399.315 475 399.424L484.874 401.068C485.522 401.177 486.044 401.798 486.044 402.451V407.273C486.044 407.943 485.522 408.552 484.874 408.656L475.011 410.3C474.363 410.409 473.77 411.018 473.688 411.666L473.013 416.826C472.932 417.457 473.345 418.219 473.938 418.492L483.039 422.634C483.633 422.906 483.981 423.641 483.812 424.272L482.566 428.932C482.392 429.579 481.728 430.031 481.074 429.966L471.119 429.002C470.466 428.937 469.736 429.378 469.486 429.982L467.488 434.788C467.243 435.376 467.445 436.22 467.951 436.634L475.68 442.997C476.186 443.416 476.333 444.21 476.001 444.782L473.59 448.957C473.253 449.539 472.496 449.8 471.881 449.572L462.502 446.061C461.887 445.832 461.071 446.067 460.674 446.584L457.511 450.715C457.125 451.221 457.103 452.087 457.484 452.62L463.297 460.763C463.678 461.296 463.613 462.107 463.145 462.57L459.732 465.983C459.258 466.456 458.458 466.516 457.925 466.135L449.787 460.322C449.254 459.941 448.399 459.957 447.882 460.355L443.751 463.523C443.245 463.909 443 464.742 443.228 465.351L446.739 474.719C446.968 475.334 446.696 476.096 446.124 476.423L441.949 478.834C441.367 479.172 440.583 479.019 440.164 478.513L433.801 470.784C433.382 470.278 432.554 470.071 431.956 470.321L427.149 472.308C426.562 472.553 426.11 473.288 426.17 473.941L427.138 483.907C427.204 484.56 426.741 485.23 426.104 485.399L421.445 486.645C420.797 486.819 420.079 486.471 419.807 485.872L415.659 476.755C415.387 476.156 414.641 475.742 413.993 475.83L408.839 476.51C408.207 476.592 407.581 477.19 407.473 477.838L405.829 487.712C405.72 488.36 405.099 488.882 404.446 488.882H399.623C398.954 488.882 398.344 488.36 398.241 487.712L396.597 477.849C396.488 477.201 395.879 476.608 395.231 476.526L390.071 475.851C389.439 475.77 388.677 476.183 388.405 476.777L384.263 485.878C383.991 486.471 383.256 486.819 382.625 486.65L377.965 485.404C377.317 485.23 376.866 484.566 376.931 483.913L377.895 473.957C377.96 473.304 377.519 472.575 376.915 472.324L372.108 470.327C371.521 470.082 370.677 470.283 370.263 470.789L363.9 478.518C363.481 479.025 362.686 479.172 362.115 478.84L357.94 476.428C357.358 476.091 357.096 475.334 357.325 474.719L360.836 465.341C361.064 464.726 360.83 463.909 360.313 463.512L356.182 460.349C355.676 459.963 354.81 459.941 354.277 460.322L346.134 466.135C345.6 466.516 344.789 466.451 344.327 465.983L340.914 462.57C340.44 462.097 340.38 461.296 340.762 460.763L346.575 452.625C346.956 452.092 346.939 451.237 346.542 450.72L343.374 446.589C342.988 446.083 342.155 445.838 341.545 446.067L332.178 449.577C331.563 449.806 330.8 449.534 330.474 448.962L328.063 444.787C327.725 444.205 327.878 443.421 328.384 443.002L336.113 436.639C336.619 436.22 336.826 435.393 336.576 434.794L334.589 429.987C334.344 429.4 333.609 428.948 332.956 429.008L322.99 429.977C322.336 430.042 321.667 429.579 321.498 428.942L320.252 424.283C320.078 423.635 320.426 422.917 321.025 422.645L330.142 418.497C330.741 418.225 331.154 417.479 331.067 416.831L330.387 411.677C330.305 411.045 329.707 410.419 329.059 410.311L319.185 408.667C318.537 408.558 318.015 407.937 318.015 407.284V402.462C318.015 401.792 318.537 401.182 319.185 401.079L329.048 399.435C329.696 399.326 330.289 398.717 330.371 398.069L331.045 392.909C331.127 392.278 330.713 391.515 330.12 391.243L321.019 387.101C320.426 386.829 320.078 386.094 320.246 385.463L321.493 380.803C321.667 380.156 322.331 379.704 322.984 379.769L332.94 380.733C333.593 380.798 334.322 380.357 334.573 379.753L336.57 374.947C336.815 374.359 336.614 373.515 336.108 373.101L328.378 366.738C327.872 366.319 327.725 365.525 328.057 364.953L330.468 360.778C330.806 360.196 331.563 359.934 332.178 360.163L341.556 363.674C342.171 363.902 342.988 363.668 343.385 363.151L346.547 359.02C346.934 358.514 346.956 357.648 346.575 357.115L340.762 348.972C340.38 348.439 340.446 347.628 340.914 347.165L344.327 343.752C344.8 343.278 345.6 343.219 346.134 343.6L354.271 349.413C354.805 349.794 355.659 349.778 356.176 349.38L360.308 346.212C360.814 345.826 361.059 344.993 360.83 344.383L357.319 335.016C357.091 334.401 357.363 333.639 357.935 333.312L362.109 330.901C362.692 330.563 363.476 330.716 363.895 331.222L370.258 338.951C370.677 339.457 371.504 339.664 372.103 339.414L376.909 337.427C377.497 337.182 377.949 336.447 377.889 335.794L376.92 325.828C376.855 325.175 377.317 324.505 377.954 324.336L382.614 323.09C383.261 322.916 383.98 323.264 384.252 323.863L388.4 332.98C388.672 333.579 389.418 333.992 390.065 333.905L395.22 333.225C395.851 333.143 396.477 332.545 396.586 331.897L398.23 322.023C398.339 321.375 398.959 320.853 399.613 320.853H404.435C405.105 320.853 405.714 321.375 405.818 322.023L407.462 331.886C407.57 332.534 408.18 333.127 408.828 333.209L413.988 333.884C414.619 333.965 415.381 333.552 415.653 332.958L419.796 323.857C420.068 323.264 420.803 322.916 421.434 323.084L426.093 324.331C426.741 324.505 427.193 325.169 427.128 325.822L426.164 335.778C426.099 336.431 426.54 337.16 427.144 337.411L431.95 339.408C432.538 339.653 433.382 339.452 433.795 338.946L440.158 331.217C440.578 330.71 441.372 330.563 441.944 330.895L446.119 333.307C446.701 333.644 446.962 334.401 446.734 335.016ZM430.753 354.998C417.221 347.181 401.833 345.483 387.796 349.043C385.09 349.729 386.68 349.353 386.68 349.353C382.913 350.638 381.411 354.519 383.31 357.98C383.31 357.98 382.216 355.983 383.397 358.133C389.026 368.404 400.293 388.957 400.293 388.957C402.84 393.606 409.203 397.285 414.51 397.176C414.51 397.176 439.473 396.659 451.959 396.398C455.802 396.316 458.3 393.083 457.462 389.463C453.565 375.431 444.371 362.857 430.758 354.998H430.753ZM429.811 455.244C443.479 447.667 452.857 435.354 457.038 421.485C457.843 418.813 457.348 420.369 457.348 420.369C458.186 416.478 455.633 413.195 451.687 413.038C451.687 413.038 453.962 413.13 451.513 413.032C439.81 412.569 416.394 411.639 416.394 411.639C411.098 411.426 404.664 414.986 402.024 419.591C402.024 419.591 389.613 441.255 383.403 452.092C381.492 455.429 382.984 459.233 386.516 460.382C400.554 464.268 416.067 462.864 429.811 455.244ZM361.669 446.072C364.428 448.559 368.472 447.944 370.405 444.619C376.686 433.825 389.238 412.243 389.238 412.243C391.905 407.654 391.775 400.306 388.944 395.821C388.944 395.821 376.43 376.003 370.176 366.102C368.864 364.028 370.084 365.955 370.084 365.955C367.977 362.618 363.857 362.046 360.907 364.719C360.907 364.719 362.006 363.511 360.096 365.546C350.178 376.101 344.201 390.378 344.474 406.005C344.746 421.719 351.288 435.855 361.674 446.067L361.669 446.072Z" fill="#050505"/>
</g>
<path d="M446.735 332.566L443.224 341.944C442.995 342.559 443.229 343.376 443.746 343.773L447.878 346.936C448.384 347.322 449.249 347.344 449.783 346.963L457.926 341.15C458.459 340.769 459.27 340.834 459.733 341.302L463.146 344.715C463.619 345.189 463.679 345.989 463.298 346.522L457.485 354.66C457.104 355.193 457.12 356.048 457.518 356.565L460.686 360.696C461.072 361.202 461.905 361.447 462.514 361.219L471.882 357.708C472.497 357.479 473.259 357.752 473.586 358.323L475.997 362.498C476.335 363.08 476.182 363.864 475.676 364.283L467.947 370.646C467.441 371.065 467.234 371.893 467.484 372.491L469.471 377.298C469.716 377.886 470.451 378.337 471.104 378.277L481.07 377.308C481.723 377.243 482.393 377.706 482.562 378.343L483.808 383.002C483.982 383.65 483.634 384.368 483.035 384.641L473.918 388.788C473.319 389.06 472.906 389.806 472.993 390.454L473.673 395.608C473.755 396.24 474.354 396.866 475.001 396.975L484.875 398.619C485.523 398.727 486.045 399.348 486.045 400.001V404.824C486.045 405.493 485.523 406.103 484.875 406.206L475.012 407.85C474.364 407.959 473.771 408.569 473.689 409.216L473.014 414.376C472.933 415.008 473.346 415.77 473.94 416.042L483.041 420.184C483.634 420.456 483.982 421.191 483.814 421.823L482.567 426.482C482.393 427.13 481.729 427.582 481.076 427.516L471.12 426.553C470.467 426.487 469.738 426.928 469.487 427.533L467.49 432.339C467.245 432.927 467.446 433.77 467.952 434.184L475.681 440.547C476.188 440.966 476.335 441.761 476.003 442.332L473.591 446.507C473.254 447.09 472.497 447.351 471.882 447.122L462.504 443.611C461.889 443.383 461.072 443.617 460.675 444.134L457.513 448.265C457.126 448.771 457.104 449.637 457.485 450.17L463.299 458.313C463.68 458.847 463.614 459.657 463.146 460.12L459.733 463.533C459.26 464.007 458.46 464.067 457.926 463.685L449.789 457.872C449.255 457.491 448.401 457.508 447.883 457.905L443.752 461.073C443.246 461.459 443.001 462.292 443.23 462.902L446.74 472.27C446.969 472.885 446.697 473.647 446.125 473.973L441.95 476.384C441.368 476.722 440.584 476.569 440.165 476.063L433.802 468.334C433.383 467.828 432.556 467.621 431.957 467.872L427.151 469.858C426.563 470.103 426.111 470.838 426.171 471.491L427.14 481.458C427.205 482.111 426.742 482.78 426.106 482.949L421.446 484.195C420.798 484.37 420.08 484.021 419.808 483.423L415.66 474.306C415.388 473.707 414.642 473.293 413.994 473.38L408.84 474.06C408.208 474.142 407.582 474.741 407.474 475.389L405.83 485.263C405.721 485.91 405.1 486.433 404.447 486.433H399.625C398.955 486.433 398.345 485.91 398.242 485.263L396.598 475.4C396.489 474.752 395.88 474.158 395.232 474.077L390.072 473.402C389.44 473.32 388.678 473.734 388.406 474.327L384.264 483.428C383.992 484.021 383.257 484.37 382.626 484.201L377.966 482.955C377.318 482.78 376.867 482.116 376.932 481.463L377.895 471.508C377.961 470.855 377.52 470.125 376.915 469.875L372.109 467.877C371.521 467.632 370.678 467.834 370.264 468.34L363.901 476.069C363.482 476.575 362.687 476.722 362.116 476.39L357.941 473.979C357.358 473.641 357.097 472.885 357.326 472.27L360.837 462.891C361.065 462.276 360.831 461.46 360.314 461.062L356.183 457.9C355.676 457.513 354.811 457.492 354.278 457.873L346.135 463.686C345.601 464.067 344.79 464.002 344.328 463.533L340.915 460.121C340.441 459.647 340.381 458.847 340.762 458.314L346.576 450.176C346.956 449.643 346.94 448.788 346.543 448.271L343.375 444.139C342.988 443.633 342.156 443.388 341.546 443.617L332.178 447.128C331.563 447.356 330.801 447.084 330.475 446.513L328.063 442.338C327.726 441.755 327.878 440.971 328.384 440.552L336.114 434.19C336.62 433.77 336.827 432.943 336.576 432.344L334.59 427.538C334.345 426.95 333.61 426.498 332.957 426.558L322.99 427.527C322.337 427.593 321.668 427.13 321.499 426.493L320.252 421.834C320.078 421.186 320.426 420.467 321.025 420.195L330.142 416.047C330.741 415.775 331.155 415.029 331.068 414.382L330.387 409.227C330.306 408.596 329.707 407.97 329.059 407.861L319.185 406.217C318.538 406.108 318.015 405.488 318.015 404.835V400.012C318.015 399.342 318.538 398.733 319.185 398.629L329.048 396.986C329.696 396.877 330.289 396.267 330.371 395.619L331.046 390.459C331.128 389.828 330.714 389.066 330.121 388.793L321.02 384.651C320.427 384.379 320.078 383.644 320.247 383.013L321.494 378.353C321.668 377.706 322.332 377.254 322.985 377.319L332.94 378.283C333.594 378.348 334.323 377.907 334.573 377.303L336.571 372.497C336.816 371.909 336.615 371.065 336.108 370.651L328.379 364.289C327.873 363.869 327.726 363.075 328.058 362.503L330.469 358.328C330.807 357.746 331.563 357.485 332.178 357.713L341.557 361.224C342.172 361.453 342.989 361.219 343.386 360.702L346.548 356.57C346.935 356.064 346.957 355.198 346.576 354.665L340.762 346.522C340.381 345.989 340.447 345.178 340.915 344.715L344.328 341.302C344.801 340.829 345.601 340.769 346.135 341.15L354.272 346.963C354.806 347.344 355.66 347.328 356.177 346.93L360.309 343.762C360.815 343.376 361.06 342.543 360.831 341.933L357.321 332.566C357.092 331.951 357.364 331.189 357.936 330.862L362.111 328.451C362.693 328.113 363.477 328.266 363.896 328.772L370.259 336.501C370.678 337.007 371.505 337.214 372.104 336.964L376.91 334.977C377.498 334.732 377.95 333.997 377.89 333.344L376.921 323.378C376.856 322.725 377.319 322.055 377.955 321.886L382.615 320.64C383.262 320.465 383.981 320.814 384.253 321.413L388.401 330.53C388.673 331.129 389.419 331.542 390.067 331.455L395.221 330.775C395.853 330.693 396.478 330.094 396.587 329.447L398.231 319.573C398.34 318.925 398.96 318.403 399.614 318.403H404.436C405.106 318.403 405.715 318.925 405.819 319.573L407.463 329.436C407.572 330.084 408.181 330.677 408.829 330.758L413.989 331.433C414.62 331.515 415.382 331.101 415.655 330.508L419.797 321.407C420.069 320.814 420.804 320.466 421.435 320.634L426.095 321.881C426.742 322.055 427.194 322.719 427.129 323.372L426.165 333.328C426.1 333.981 426.541 334.71 427.145 334.961L431.951 336.958C432.539 337.203 433.383 337.002 433.797 336.496L440.16 328.766C440.579 328.26 441.373 328.113 441.945 328.445L446.12 330.857C446.702 331.194 446.964 331.951 446.735 332.566L446.735 332.566ZM430.754 352.548C417.222 344.731 401.835 343.033 387.797 346.593C385.092 347.279 386.682 346.903 386.682 346.903C382.915 348.188 381.413 352.069 383.312 355.531C383.312 355.531 382.218 353.533 383.399 355.683C389.028 365.954 400.295 386.507 400.295 386.507C402.842 391.156 409.205 394.835 414.512 394.727C414.512 394.727 439.474 394.209 451.961 393.948C455.803 393.866 458.302 390.633 457.464 387.013C453.566 372.981 444.373 360.408 430.76 352.548H430.754ZM429.812 452.793C443.48 445.217 452.858 432.904 457.038 419.035C457.843 416.363 457.348 417.92 457.348 417.92C458.186 414.028 455.634 410.745 451.687 410.588C451.687 410.588 453.963 410.68 451.513 410.582C439.81 410.119 416.395 409.189 416.395 409.189C411.098 408.977 404.665 412.536 402.025 417.141C402.025 417.141 389.614 438.804 383.404 449.642C381.493 452.979 382.985 456.784 386.517 457.932C400.555 461.818 416.069 460.414 429.812 452.794L429.812 452.793ZM361.67 443.622C364.43 446.109 368.474 445.494 370.406 442.168C376.688 431.375 389.239 409.794 389.239 409.794C391.907 405.205 391.776 397.857 388.946 393.372C388.946 393.372 376.432 373.553 370.178 363.653C368.866 361.579 370.085 363.506 370.085 363.506C367.979 360.169 363.858 359.598 360.908 362.27C360.908 362.27 362.008 361.062 360.097 363.098C350.179 373.652 344.203 387.928 344.475 403.557C344.747 419.271 351.29 433.406 361.675 443.618L361.67 443.622Z" fill="url(#paint6_linear_823_2)"/>
<defs>
<filter id="filter0_d_823_2" x="260" y="16" width="240" height="240" filterUnits="userSpaceOnUse" color-interpolation-filters="sRGB">
<feFlood flood-opacity="0" result="BackgroundImageFix"/>
<feColorMatrix in="SourceAlpha" type="matrix" values="0 0 0 0 0 0 0 0 0 0 0 0 0 0 0 0 0 0 127 0" result="hardAlpha"/>
<feOffset dy="4"/>
<feGaussianBlur stdDeviation="10"/>
<feComposite in2="hardAlpha" operator="out"/>
<feColorMatrix type="matrix" values="0 0 0 0 0 0 0 0 0 0 0 0 0 0 0 0 0 0 0.5 0"/>
<feBlend mode="normal" in2="BackgroundImageFix" result="effect1_dropShadow_823_2"/>
<feBlend mode="normal" in="SourceGraphic" in2="effect1_dropShadow_823_2" result="shape"/>
</filter>
<filter id="filter1_f_823_2" x="317.175" y="320.013" width="169.71" height="169.71" filterUnits="userSpaceOnUse" color-interpolation-filters="sRGB">
<feFlood flood-opacity="0" result="BackgroundImageFix"/>
<feBlend mode="normal" in="SourceGraphic" in2="BackgroundImageFix" result="shape"/>
<feGaussianBlur stdDeviation="0.420073" result="effect1_foregroundBlur_823_2"/>
</filter>
<linearGradient id="paint0_linear_823_2" x1="239.989" y1="208.247" x2="239.989" y2="32.2388" gradientUnits="userSpaceOnUse">
<stop stop-color="#FF8181"/>
<stop offset="0.489583" stop-color="#E6B8BF"/>
<stop offset="1" stop-color="#FFCCCC"/>
</linearGradient>
<linearGradient id="paint1_linear_823_2" x1="239.99" y1="456.249" x2="239.99" y2="56.2466" gradientUnits="userSpaceOnUse">
<stop stop-color="#F44348"/>
<stop offset="1" stop-color="#FB915E"/>
</linearGradient>
<linearGradient id="paint2_linear_823_2" x1="360" y1="152" x2="456.064" y2="55.936" gradientUnits="userSpaceOnUse">
<stop stop-color="white"/>
<stop offset="1" stop-color="#CCF0FF"/>
</linearGradient>
<linearGradient id="paint3_linear_823_2" x1="259.998" y1="128.791" x2="259.998" y2="407.06" gradientUnits="userSpaceOnUse">
<stop stop-color="white"/>
<stop offset="1" stop-color="#FFDCCC"/>
</linearGradient>
<linearGradient id="paint4_linear_823_2" x1="399.589" y1="298.408" x2="399.589" y2="506.486" gradientUnits="userSpaceOnUse">
<stop stop-color="white"/>
<stop offset="1" stop-color="#D7D7D7"/>
</linearGradient>
<radialGradient id="paint5_radial_823_2" cx="0" cy="0" r="1" gradientUnits="userSpaceOnUse" gradientTransform="translate(402.039 402.038) scale(93.6347)">
<stop stop-opacity="0"/>
<stop offset="1" stop-opacity="0.526"/>
</radialGradient>
<linearGradient id="paint6_linear_823_2" x1="403.624" y1="508.45" x2="403.624" y2="296.286" gradientUnits="userSpaceOnUse">
<stop offset="0.058" stop-color="#807C76"/>
<stop offset="0.385" stop-color="#D4D7D0"/>
<stop offset="0.558" stop-color="#BDBFBA"/>
<stop offset="0.635" stop-color="#ACB3AC"/>
<stop offset="0.75" stop-color="#DADFDA"/>
<stop offset="0.863" stop-color="#C2C7C1"/>
<stop offset="0.941" stop-color="#7F7A75"/>
</linearGradient>
</defs>
</svg>
