<svg width="64" height="64" viewBox="0 0 64 64" fill="none" xmlns="http://www.w3.org/2000/svg">
<path d="M47 4H17.002C9.82119 4 4 9.82119 4 17.002V47C4 54.1808 9.82119 60.002 17.002 60.002H47C54.1808 60.002 60.002 54.1808 60.002 47V17.002C60.002 9.82119 54.1808 4 47 4Z" fill="url(#paint0_linear_613_127)"/>
<path d="M32.5014 10.5398C26.7155 10.5398 21.4756 12.8867 17.6818 16.6833C13.8867 20.4713 11.5412 25.714 11.5412 31.5029C11.5412 37.2874 13.8867 42.5266 17.6818 46.316C21.4756 50.1076 26.7155 52.4588 32.5014 52.4588C38.2889 52.4588 43.5316 50.1076 47.3196 46.316C51.1133 42.5266 53.4537 37.2874 53.4537 31.5029C53.4537 25.714 51.1133 20.4713 47.3196 16.6833C43.5316 12.8867 38.2889 10.5398 32.5014 10.5398ZM32.5014 8C45.4783 8 56 18.5231 56 31.5029C56 44.4783 45.4783 55 32.5014 55C19.526 55 9 44.4783 9 31.5029C9 18.5231 19.526 8 32.5014 8Z" fill="#007DB8"/>
<path d="M21.3871 31.3114C21.3871 29.9418 20.4784 29.1638 19.1919 29.1638H18.4046V33.4603H19.1695C20.3657 33.4603 21.3871 32.8102 21.3871 31.3114ZM35.3926 32.8572L29.5922 37.4246L24.2909 33.2509C23.526 35.0885 21.6775 36.3649 19.5488 36.3649H15.0117V26.2579H19.5488C21.9274 26.2579 23.6416 27.7704 24.2895 29.382L29.5922 25.2126L31.5563 26.7584L26.6963 30.5782L27.6303 31.3092L32.4888 27.4916L34.4558 29.0331L29.5966 32.8572L30.5291 33.5896L35.3926 29.7648V26.2579H38.9184V33.4148H42.4355V36.3772H35.3926V32.8572ZM46.9017 33.4163H50.4174V36.3772H43.3724V26.2579H46.9017V33.4163Z" fill="#007DB8"/>
<defs>
<linearGradient id="paint0_linear_613_127" x1="32" y1="5.5" x2="32" y2="156" gradientUnits="userSpaceOnUse">
<stop stop-color="#D3D3D3"/>
<stop offset="1" stop-color="#0095DB"/>
<stop offset="1" stop-color="#00ADFF"/>
</linearGradient>
</defs>
</svg>
