<svg width="1024" height="1024" viewBox="0 0 1024 1024" fill="none" xmlns="http://www.w3.org/2000/svg">
<path d="M751.929 63.9805H272.01C157.118 63.9805 63.9805 157.118 63.9805 272.01V751.929C63.9805 866.82 157.118 959.958 272.01 959.958H751.929C866.82 959.958 959.958 866.82 959.958 751.929V272.01C959.958 157.118 866.82 63.9805 751.929 63.9805Z" fill="url(#paint0_linear_896_4)"/>
<path opacity="0.01" d="M264.27 32.0527C136.307 32.0527 32.0508 139.817 32.0508 271.891V783.982C32.0508 916.056 136.368 1023.94 264.27 1023.94H759.791C887.632 1023.94 992.009 916.117 992.009 783.982V271.952C992.009 139.877 887.632 31.9922 759.791 31.9922L264.27 32.0527ZM279.751 63.4989H744.249C855.762 63.4989 945.626 156.265 945.626 271.528V751.507C945.626 866.77 855.823 959.537 744.249 959.537H279.811C168.237 959.537 78.4341 866.77 78.4341 751.507V271.528C78.4341 156.265 168.237 63.4989 279.811 63.4989H279.751Z" fill="black"/>
<path opacity="0.01" d="M263.604 48.0175C144.653 48.0175 48.0762 147.98 48.0762 270.923V784.949C48.0762 908.013 144.653 1007.98 263.604 1007.98H760.456C879.407 1007.98 975.984 908.013 975.984 784.949V270.923C975.984 147.92 879.407 47.957 760.456 47.957L263.604 48.0175ZM280.053 63.4988H744.007C855.399 63.4988 945.082 156.265 945.082 271.528V751.507C945.082 866.77 855.399 959.537 744.007 959.537H279.993C168.6 959.537 78.9177 866.77 78.9177 751.507V271.528C78.9177 156.265 168.661 63.4988 280.053 63.4988Z" fill="black"/>
<path opacity="0.03" d="M260.641 63.9844C147.798 63.9844 56.543 157.053 56.543 272.014V784.044C56.543 898.944 151.487 992.013 264.27 992.013H760.154C872.997 992.013 967.397 899.004 967.397 783.984V272.014C967.397 157.114 876.082 64.0449 763.298 64.0449H757.432C865.922 69.3061 951.795 159.714 951.795 271.59V751.57C951.795 866.832 860.721 959.599 747.575 959.599H276.486C163.339 959.599 72.2661 866.832 72.2661 751.57V271.53C72.2661 159.654 158.139 69.2456 266.628 63.9844H260.641Z" fill="black"/>
<path opacity="0.03" d="M64.0005 751.512V784.008C64.0005 890.377 158.337 976.009 264.706 976.009H760.086C866.454 976.009 960.007 890.377 960.007 784.008V752.136C959.988 779.418 954.591 806.428 944.124 831.622C933.657 856.816 918.325 879.7 899.007 898.964C879.688 918.227 856.761 933.493 831.537 943.889C806.313 954.284 779.287 959.604 752.005 959.545H272.034C244.698 959.606 217.618 954.267 192.351 943.834C167.083 933.401 144.126 918.08 124.796 898.75C105.466 879.42 90.1445 856.462 79.7115 831.195C69.2785 805.928 63.9393 778.848 64.0005 751.512Z" fill="black"/>
<path opacity="0.05" d="M63.9805 720V755.8C63.9805 873.059 159.105 967.458 265.479 967.458H758.943C865.377 967.458 960.018 873.059 960.018 755.8V720.726C959.655 847.418 867.07 949.316 751.989 949.316H272.01C156.808 949.316 63.9805 846.995 63.9805 720Z" fill="black"/>
<path d="M862 514.7C771.183 520.273 685.539 558.864 621.201 623.201C556.864 687.539 518.273 773.183 512.7 864H511.3C505.736 773.18 467.149 687.531 402.809 623.191C338.469 558.851 252.82 520.264 162 514.7L162 513.3C252.82 507.736 338.469 469.149 402.809 404.809C467.149 340.469 505.736 254.82 511.3 164L512.7 164C518.273 254.817 556.864 340.461 621.201 404.799C685.539 469.136 771.183 507.727 862 513.3V514.7Z" fill="url(#paint1_radial_896_4)"/>
<defs>
<linearGradient id="paint0_linear_896_4" x1="479.964" y1="912.459" x2="479.964" y2="112.477" gradientUnits="userSpaceOnUse">
<stop stop-color="#F1EFEB"/>
<stop offset="1" stop-color="#FDFCFC"/>
</linearGradient>
<radialGradient id="paint1_radial_896_4" cx="0" cy="0" r="1" gradientUnits="userSpaceOnUse" gradientTransform="translate(231.475 448.506) rotate(18.6832) scale(745.063 5968.42)">
<stop offset="0.067" stop-color="#9168C0"/>
<stop offset="0.343" stop-color="#5684D1"/>
<stop offset="0.672" stop-color="#1BA1E3"/>
</radialGradient>
</defs>
</svg>
