<svg width="1024" height="1024" viewBox="0 0 1024 1024" fill="none" xmlns="http://www.w3.org/2000/svg">
<path d="M747.69 72H276.31C163.473 72 72 163.473 72 276.31V747.69C72 860.527 163.473 952 276.31 952H747.69C860.527 952 952 860.527 952 747.69V276.31C952 163.473 860.527 72 747.69 72Z" fill="url(#paint0_linear_876_149)"/>
<path d="M716.318 131H308.682C211.103 131 132 210.103 132 307.682V715.318C132 812.897 211.103 892 308.682 892H716.318C813.897 892 893 812.897 893 715.318V307.682C893 210.103 813.897 131 716.318 131Z" fill="url(#paint1_linear_876_149)"/>
<path d="M528.288 455.381C526.477 448.67 523.813 442.757 520.298 437.643C516.782 432.423 512.468 428.002 507.354 424.38C502.24 420.758 496.381 418.041 489.776 416.23C483.171 414.312 475.926 413.354 468.043 413.354C452.169 413.354 438.426 417.189 426.814 424.859C415.308 432.53 406.413 443.716 400.128 458.417C393.842 473.013 390.7 490.751 390.7 511.631C390.7 532.618 393.736 550.516 399.808 565.324C405.881 580.133 414.669 591.425 426.175 599.202C437.681 606.979 451.637 610.868 468.043 610.868C482.532 610.868 494.783 608.524 504.797 603.836C514.918 599.042 522.588 592.278 527.808 583.542C533.029 574.806 535.639 564.525 535.639 552.7L550.34 554.458H470.759V496.77H611.864V540.076C611.864 569.373 605.632 594.461 593.167 615.342C580.809 636.223 563.764 652.256 542.031 663.442C520.404 674.628 495.529 680.221 467.404 680.221C436.189 680.221 408.757 673.457 385.107 659.927C361.456 646.397 343.026 627.114 329.815 602.079C316.605 576.937 310 547.107 310 512.59C310 485.743 313.995 461.933 321.985 441.159C329.975 420.278 341.108 402.594 355.384 388.105C369.766 373.616 386.385 362.643 405.241 355.186C424.204 347.729 444.605 344 466.445 344C485.408 344 503.039 346.717 519.339 352.15C535.745 357.583 550.234 365.254 562.805 375.161C575.483 385.069 585.763 396.841 593.647 410.477C601.53 424.114 606.431 439.082 608.348 455.381H528.288ZM652.982 675.747V484.838H713.759V675.747H652.982ZM683.433 462.59C674.898 462.59 667.565 459.773 661.433 454.138C655.302 448.421 652.236 441.544 652.236 433.506C652.236 425.552 655.302 418.757 661.433 413.123C667.565 407.406 674.898 404.547 683.433 404.547C692.05 404.547 699.383 407.406 705.432 413.123C711.564 418.757 714.629 425.552 714.629 433.506C714.629 441.544 711.564 448.421 705.432 454.138C699.383 459.773 692.05 462.59 683.433 462.59Z" fill="url(#paint2_linear_876_149)"/>
<defs>
<linearGradient id="paint0_linear_876_149" x1="512" y1="952" x2="512" y2="-585.5" gradientUnits="userSpaceOnUse">
<stop stop-color="#229BFF"/>
<stop offset="1" stop-color="#001126"/>
</linearGradient>
<linearGradient id="paint1_linear_876_149" x1="485.306" y1="851.635" x2="485.306" y2="172.191" gradientUnits="userSpaceOnUse">
<stop stop-color="#001126"/>
<stop offset="1" stop-color="#001126"/>
</linearGradient>
<linearGradient id="paint2_linear_876_149" x1="511.246" y1="239.747" x2="510.793" y2="1539.19" gradientUnits="userSpaceOnUse">
<stop stop-color="white"/>
<stop offset="1" stop-color="#229BFF"/>
</linearGradient>
</defs>
</svg>
