<svg width="506" height="506" viewBox="0 0 506 506" fill="none" xmlns="http://www.w3.org/2000/svg">
<g clip-path="url(#clip0_2_1522)">
<path d="M372.969 28H135.797C79.0238 28 33 74.0238 33 130.797V367.969C33 424.742 79.0238 470.766 135.797 470.766H372.969C429.742 470.766 475.766 424.742 475.766 367.969V130.797C475.766 74.0238 429.742 28 372.969 28Z" fill="url(#paint0_linear_2_1522)"/>
<path d="M341.114 245.252C326.279 256.266 311.425 267.253 296.614 278.299C283.243 288.271 269.856 298.225 256.63 308.387C254.1 310.33 252.591 310.03 250.232 308.252C222.368 287.256 194.421 266.37 166.089 245.173C165.402 244.573 165.123 244.256 165.136 243.735C165.566 241.893 165.821 240.255 165.823 238.616C165.858 209.218 165.863 179.819 165.875 150.42C185.13 164.772 204.392 179.115 223.637 193.48C232.653 200.21 241.717 206.88 250.578 213.809C252.984 215.69 254.418 215.278 256.615 213.621C284.565 192.552 312.587 171.578 340.879 150.913C341.171 159.419 341.163 167.593 341.18 175.766C341.227 198.759 341.283 221.753 341.29 244.876C341.243 245.007 341.114 245.252 341.114 245.252Z" fill="#EA4235"/>
<path d="M341.133 245.673C341.114 245.252 341.242 245.007 341.542 244.784C343.873 242.961 345.874 241.322 347.94 239.767C361.842 229.299 375.731 218.815 389.679 208.408C397.531 202.549 405.485 196.829 413.393 191.046C413.594 192.525 413.971 194.004 413.972 195.484C414.002 245.574 414.007 295.664 413.991 345.754C413.987 360.163 405.011 369.147 390.562 369.187C374.293 369.232 358.024 369.197 341.152 369.197C341.152 328.05 341.152 287.072 341.133 245.673Z" fill="#35A853"/>
<path d="M164.843 243.938C165.123 244.256 165.403 244.573 165.817 245.057C165.917 284.717 165.883 324.21 165.85 363.703C165.848 365.35 165.849 366.997 165.849 368.846C164.952 368.986 164.304 369.176 163.655 369.176C147.385 369.191 131.113 369.308 114.844 369.145C102.429 369.02 93.068 359.73 93.0515 347.516C92.982 296.062 93.0211 244.608 93.0272 193.154C93.0273 192.601 93.1184 192.048 93.5466 191.252C97.1427 193.415 100.357 195.824 103.576 198.227C123.998 213.465 144.421 228.701 164.843 243.938Z" fill="#4285F4"/>
<path d="M165.136 243.734C144.42 228.701 123.998 213.464 103.576 198.226C100.357 195.824 97.1426 193.414 93.7097 190.91C93.5689 178.5 91.9794 165.896 94.0745 153.937C98.1358 130.755 125.18 120.743 144.515 134.283C151.677 139.298 158.556 144.718 165.72 150.187C165.863 179.819 165.858 209.217 165.823 238.616C165.821 240.254 165.566 241.892 165.136 243.734Z" fill="#C5231D"/>
<path d="M413.589 190.72C405.485 196.828 397.531 202.549 389.68 208.407C375.732 218.814 361.842 229.299 347.94 239.767C345.875 241.322 343.873 242.961 341.59 244.654C341.284 221.752 341.227 198.759 341.18 175.766C341.163 167.592 341.171 159.419 341.156 150.856C348.67 144.78 355.939 138.706 363.785 133.502C374.239 126.567 385.566 126.284 396.574 132.108C407.74 138.015 413.777 147.573 413.909 160.398C414.013 170.395 413.837 180.395 413.589 190.72Z" fill="#FABB01"/>
</g>
<defs>
<linearGradient id="paint0_linear_2_1522" x1="254.375" y1="39.8594" x2="254.375" y2="1229.75" gradientUnits="userSpaceOnUse">
<stop stop-color="white"/>
<stop offset="1" stop-color="#B9B9B9"/>
</linearGradient>
<clipPath id="clip0_2_1522">
<rect width="506" height="506" fill="white"/>
</clipPath>
</defs>
</svg>
