<svg width="128" height="128" viewBox="0 0 128 128" fill="none" xmlns="http://www.w3.org/2000/svg">
<path d="M94.8806 9.24512H33.6956C20.2332 9.24512 9.3197 20.1586 9.3197 33.621V94.806C9.3197 108.268 20.2332 119.182 33.6956 119.182H94.8806C108.343 119.182 119.256 108.268 119.256 94.806V33.621C119.256 20.1586 108.343 9.24512 94.8806 9.24512Z" fill="url(#paint0_linear_112_459)"/>
<g filter="url(#filter0_d_112_459)">
<path d="M63.3386 71.956C63.2159 71.9227 61.3276 71.4385 59.3209 71.4385C55.5218 71.4385 53.2344 73.4782 53.2344 76.5157C53.2344 79.2044 55.148 80.5453 57.4444 81.2666C57.699 81.3501 58.0741 81.4669 58.3239 81.5492C59.3462 81.8689 60.1622 82.344 60.1622 83.167C60.1622 84.0873 59.2191 84.6831 57.169 84.6831C55.3673 84.6831 53.64 84.1708 53.2762 84.0795V87.8167C53.479 87.8595 55.5318 88.2602 57.7247 88.2602C60.8789 88.2602 64.487 86.8899 64.487 82.8105C64.487 80.8318 63.2685 79.0101 60.5934 78.1647L59.4563 77.8047C58.7778 77.5918 57.5667 77.2469 57.5667 76.2582C57.5667 75.4772 58.4641 74.9273 60.1165 74.9273C61.5421 74.9273 63.2772 75.4037 63.3386 75.4227V71.956ZM98.1712 79.8496C98.1712 82.2125 96.3508 84.1241 93.9082 84.1241C91.4628 84.1241 89.6473 82.2125 89.6473 79.8496C89.6473 77.4914 91.4628 75.5789 93.9082 75.5789C96.3508 75.5789 98.1712 77.4914 98.1712 79.8496ZM93.9082 71.4437C88.8844 71.4437 85.2815 75.2111 85.2815 79.8496C85.2815 84.4953 88.8844 88.2602 93.9082 88.2602C98.9315 88.2602 102.54 84.4953 102.54 79.8496C102.54 75.2111 98.9315 71.4437 93.9082 71.4437ZM47.7072 87.9712H43.5851V71.7314H47.7072" fill="url(#paint1_linear_112_459)"/>
<path d="M37.9193 72.0253C37.532 71.9111 36.1002 71.4434 34.1611 71.4434C29.1451 71.4434 25.463 74.9992 25.463 79.8492C25.463 85.0818 29.5276 88.2599 34.1611 88.2599C36.0019 88.2599 37.4071 87.8263 37.9193 87.6818V83.3224C37.7422 83.4202 36.3949 84.1844 34.4565 84.1844C31.7105 84.1844 29.9393 82.2628 29.9393 79.8492C29.9393 77.3621 31.7871 75.5176 34.4565 75.5176C36.4279 75.5176 37.7535 76.2986 37.9193 76.3847" fill="url(#paint2_linear_112_459)"/>
<path d="M80.9418 72.0253C80.5545 71.9111 79.1227 71.4434 77.1835 71.4434C72.1676 71.4434 68.4855 74.9992 68.4855 79.8492C68.4855 85.0818 72.5501 88.2599 77.1835 88.2599C79.0244 88.2599 80.4296 87.8263 80.9418 87.6818V83.3224C80.7647 83.4202 79.4173 84.1844 77.479 84.1844C74.733 84.1844 72.9618 82.2628 72.9618 79.8492C72.9618 77.3621 74.8096 75.5176 77.479 75.5176C79.4504 75.5176 80.776 76.2986 80.9418 76.3847" fill="url(#paint3_linear_112_459)"/>
<path d="M43.5728 41.0272C43.5728 39.9078 42.6533 39 41.5262 39C40.3995 39 39.4799 39.9078 39.4799 41.0272V62.5925C39.4799 63.7183 40.3995 64.6257 41.5262 64.6257C42.6533 64.6257 43.5728 63.7183 43.5728 62.5925V41.0272ZM32.3324 48.6823C32.3324 47.5634 31.4133 46.6543 30.2862 46.6543C29.1591 46.6543 28.24 47.5634 28.24 48.6823V58.5412C28.24 59.6666 29.1591 60.5744 30.2862 60.5744C31.4133 60.5744 32.3324 59.6666 32.3324 58.5412V48.6823ZM21.0925 54.2779C21.0925 53.1585 20.1734 52.2512 19.0462 52.2512C17.9204 52.2512 17 53.1585 17 54.2779V58.5412C17 59.6666 17.9204 60.5744 19.0462 60.5744C20.1734 60.5744 21.0925 59.6666 21.0925 58.5412" fill="url(#paint4_linear_112_459)"/>
<path d="M39.48 41.0272C39.48 39.9078 40.3996 39 41.5267 39C42.6534 39 43.5729 39.9078 43.5729 41.0272V62.5925C43.5729 63.7183 42.6534 64.6257 41.5267 64.6257C40.3996 64.6257 39.48 63.7183 39.48 62.5925V41.0272ZM50.7204 48.6823C50.7204 47.5634 51.6395 46.6543 52.7667 46.6543C53.8938 46.6543 54.8129 47.5634 54.8129 48.6823V58.5412C54.8129 59.6666 53.8938 60.5744 52.7667 60.5744C51.6395 60.5744 50.7204 59.6666 50.7204 58.5412V48.6823ZM61.9604 54.2779C61.9604 53.1585 62.8795 52.2512 64.0066 52.2512C65.1324 52.2512 66.0529 53.1585 66.0529 54.2779V58.5412C66.0529 59.6666 65.1324 60.5744 64.0066 60.5744C62.8795 60.5744 61.9604 59.6666 61.9604 58.5412" fill="url(#paint5_linear_112_459)"/>
<path d="M84.4272 41.0272C84.4272 39.9078 85.3467 39 86.4738 39C87.6005 39 88.5201 39.9078 88.5201 41.0272V62.5925C88.5201 63.7183 87.6005 64.6257 86.4738 64.6257C85.3467 64.6257 84.4272 63.7183 84.4272 62.5925V41.0272ZM95.6676 48.6823C95.6676 47.5634 96.5867 46.6543 97.7138 46.6543C98.8409 46.6543 99.76 47.5634 99.76 48.6823V58.5412C99.76 59.6666 98.8409 60.5744 97.7138 60.5744C96.5867 60.5744 95.6676 59.6666 95.6676 58.5412V48.6823ZM106.908 54.2779C106.908 53.1585 107.827 52.2512 108.954 52.2512C110.08 52.2512 111 53.1585 111 54.2779V58.5412C111 59.6666 110.08 60.5744 108.954 60.5744C107.827 60.5744 106.908 59.6666 106.908 58.5412" fill="url(#paint6_linear_112_459)"/>
<path d="M88.52 41.0272C88.52 39.9078 87.6004 39 86.4733 39C85.3466 39 84.4271 39.9078 84.4271 41.0272V62.5925C84.4271 63.7183 85.3466 64.6257 86.4733 64.6257C87.6004 64.6257 88.52 63.7183 88.52 62.5925V41.0272ZM77.2796 48.6823C77.2796 47.5634 76.3605 46.6543 75.2333 46.6543C74.1062 46.6543 73.1871 47.5634 73.1871 48.6823V58.5412C73.1871 59.6666 74.1062 60.5744 75.2333 60.5744C76.3605 60.5744 77.2796 59.6666 77.2796 58.5412V48.6823ZM66.0396 54.2779C66.0396 53.1585 65.1205 52.2512 63.9934 52.2512C62.8676 52.2512 61.9471 53.1585 61.9471 54.2779V58.5412C61.9471 59.6666 62.8676 60.5744 63.9934 60.5744C65.1205 60.5744 66.0396 59.6666 66.0396 58.5412" fill="url(#paint7_linear_112_459)"/>
</g>
<defs>
<filter id="filter0_d_112_459" x="13" y="37" width="102" height="57.2603" filterUnits="userSpaceOnUse" color-interpolation-filters="sRGB">
<feFlood flood-opacity="0" result="BackgroundImageFix"/>
<feColorMatrix in="SourceAlpha" type="matrix" values="0 0 0 0 0 0 0 0 0 0 0 0 0 0 0 0 0 0 127 0" result="hardAlpha"/>
<feOffset dy="2"/>
<feGaussianBlur stdDeviation="2"/>
<feComposite in2="hardAlpha" operator="out"/>
<feColorMatrix type="matrix" values="0 0 0 0 0 0 0 0 0 0 0 0 0 0 0 0 0 0 0.4 0"/>
<feBlend mode="normal" in2="BackgroundImageFix" result="effect1_dropShadow_112_459"/>
<feBlend mode="normal" in="SourceGraphic" in2="effect1_dropShadow_112_459" result="shape"/>
</filter>
<linearGradient id="paint0_linear_112_459" x1="56.2918" y1="113.7" x2="56.2918" y2="11.6856" gradientUnits="userSpaceOnUse">
<stop stop-color="#114C84"/>
<stop offset="1" stop-color="#05ADEE"/>
</linearGradient>
<linearGradient id="paint1_linear_112_459" x1="73.0624" y1="71.4385" x2="73.0624" y2="88.2602" gradientUnits="userSpaceOnUse">
<stop stop-color="white"/>
<stop offset="1" stop-color="#9DC9D9"/>
</linearGradient>
<linearGradient id="paint2_linear_112_459" x1="31.6912" y1="71.4434" x2="31.6912" y2="88.2599" gradientUnits="userSpaceOnUse">
<stop stop-color="white"/>
<stop offset="1" stop-color="#9DC9D9"/>
</linearGradient>
<linearGradient id="paint3_linear_112_459" x1="74.7136" y1="71.4434" x2="74.7136" y2="88.2599" gradientUnits="userSpaceOnUse">
<stop stop-color="white"/>
<stop offset="1" stop-color="#9DC9D9"/>
</linearGradient>
<linearGradient id="paint4_linear_112_459" x1="30.2864" y1="39" x2="30.2864" y2="64.6257" gradientUnits="userSpaceOnUse">
<stop stop-color="white"/>
<stop offset="1" stop-color="#9DC9D9"/>
</linearGradient>
<linearGradient id="paint5_linear_112_459" x1="52.7664" y1="39" x2="52.7664" y2="64.6257" gradientUnits="userSpaceOnUse">
<stop stop-color="white"/>
<stop offset="1" stop-color="#9DC9D9"/>
</linearGradient>
<linearGradient id="paint6_linear_112_459" x1="97.7136" y1="39" x2="97.7136" y2="64.6257" gradientUnits="userSpaceOnUse">
<stop stop-color="white"/>
<stop offset="1" stop-color="#9DC9D9"/>
</linearGradient>
<linearGradient id="paint7_linear_112_459" x1="75.2336" y1="39" x2="75.2336" y2="64.6257" gradientUnits="userSpaceOnUse">
<stop stop-color="white"/>
<stop offset="1" stop-color="#9DC9D9"/>
</linearGradient>
</defs>
</svg>
