<svg width="504" height="504" viewBox="0 0 504 504" fill="none" xmlns="http://www.w3.org/2000/svg">
<path opacity="0.01" d="M130.07 15.7751C67.0889 15.7751 15.7751 68.8152 15.7751 133.821V385.865C15.7751 450.871 67.1187 503.97 130.07 503.97H373.96C436.881 503.97 488.255 450.9 488.255 385.865V133.85C488.255 68.845 436.881 15.7454 373.96 15.7454L130.07 15.7751ZM137.69 31.2526H366.31C421.196 31.2526 465.425 76.9111 465.425 133.642V369.882C465.425 426.613 421.225 472.271 366.31 472.271H137.72C82.8045 472.271 38.6044 426.613 38.6044 369.882V133.642C38.6044 76.9111 82.8045 31.2526 137.72 31.2526H137.69Z" fill="black"/>
<path opacity="0.01" d="M129.743 23.633C71.1963 23.633 23.6626 72.8335 23.6626 133.344V386.342C23.6626 446.912 71.1963 496.113 129.743 496.113H374.287C432.833 496.113 480.367 446.912 480.367 386.342V133.344C480.367 72.8038 432.833 23.6033 374.287 23.6033L129.743 23.633ZM137.839 31.2527H366.191C421.017 31.2527 465.157 76.9112 465.157 133.642V369.882C465.157 426.613 421.017 472.271 366.191 472.271H137.809C82.983 472.271 38.8424 426.613 38.8424 369.882V133.642C38.8424 76.9112 83.0127 31.2527 137.839 31.2527Z" fill="black"/>
<path opacity="0.03" d="M128.285 31.4907C72.7443 31.4907 27.8298 77.2981 27.8298 133.88V385.895C27.8298 442.447 74.5599 488.255 130.07 488.255H374.138C429.679 488.255 476.141 442.477 476.141 385.865V133.88C476.141 77.3278 431.197 31.5205 375.686 31.5205H372.799C426.196 34.11 468.462 78.6077 468.462 133.672V369.912C468.462 426.642 423.636 472.301 367.947 472.301H136.083C80.3937 472.301 35.5686 426.642 35.5686 369.912V133.642C35.5686 78.5779 77.834 34.0802 131.231 31.4907H128.285Z" fill="black"/>
<path opacity="0.03" d="M31.5003 369.884V385.878C31.5003 438.231 77.9316 480.378 130.285 480.378H374.105C426.458 480.378 472.503 438.231 472.503 385.878V370.191C472.494 383.618 469.838 396.913 464.686 409.313C459.534 421.713 451.988 432.976 442.48 442.458C432.971 451.939 421.687 459.453 409.272 464.569C396.857 469.685 383.556 472.304 370.128 472.275H133.892C120.437 472.305 107.109 469.677 94.6726 464.542C82.2363 459.407 70.9368 451.866 61.4229 442.352C51.909 432.838 44.368 421.539 39.233 409.103C34.098 396.666 31.4701 383.338 31.5003 369.884Z" fill="black"/>
<path opacity="0.05" d="M31.4907 354.375V371.995C31.4907 429.708 78.3101 476.17 130.666 476.17H373.543C425.928 476.17 472.509 429.708 472.509 371.995V354.732C472.331 417.088 426.762 467.241 370.12 467.241H133.88C77.179 467.241 31.4907 416.88 31.4907 354.375Z" fill="black"/>
<path d="M370.09 31.4907H133.88C77.332 31.4907 31.4907 77.332 31.4907 133.88V370.09C31.4907 426.638 77.332 472.48 133.88 472.48H370.09C426.638 472.48 472.48 426.638 472.48 370.09V133.88C472.48 77.332 426.638 31.4907 370.09 31.4907Z" fill="#2E78CF"/>
<g filter="url(#filter0_i_608_2)">
<path d="M163.826 304.549C135.298 278.845 120.792 246.968 121.002 209.474C121.344 148.586 162.218 99.064 220.997 85.9832C290.923 70.4218 360.663 117.426 373.058 187.702C385.58 258.697 336.195 325.518 264.136 335.06C226.292 340.071 193.172 329.41 163.826 304.549Z" fill="#FAFAFA"/>
</g>
<path d="M184.756 279.85C163.447 260.626 152.611 236.786 152.768 208.746C153.023 163.209 183.554 126.174 227.461 116.391C279.693 104.753 331.786 139.906 341.045 192.463C350.398 245.559 313.509 295.532 259.684 302.668C231.415 306.416 206.676 298.442 184.756 279.85Z" fill="#2E78CF"/>
<g filter="url(#filter1_i_608_2)">
<path d="M247.405 270.253C274.425 269.916 295.765 254.956 305.041 229.882C306.378 226.269 307.618 225.262 311.307 226.73C314.952 228.181 318.889 228.92 322.721 229.876C325.666 230.61 326.451 232.128 325.43 235.077C313.437 269.707 280.459 292.559 245.161 290.841C233.894 290.293 223.43 287.532 213.039 283.684C209.64 282.426 208.836 280.963 210.99 277.681C213.251 274.235 215.062 270.454 216.732 266.67C218.02 263.752 219.512 263.549 222.188 264.924C229.897 268.883 238.205 270.368 247.405 270.253Z" fill="#FAFAFA"/>
</g>
<g filter="url(#filter2_i_608_2)">
<path d="M181.568 166.796C188.241 157.029 196.195 149.184 205.654 142.803C208.282 141.03 209.85 140.628 211.513 144.005C213.686 148.419 218.063 152.375 218.531 156.839C219.086 162.128 212.1 163.105 208.705 166.285C188.696 185.021 183.132 214.268 195.501 239.128C197.224 242.591 197.63 244.526 193.573 246.27C190.339 247.661 187.236 249.574 184.452 251.741C180.872 254.528 179.265 253.298 177.561 249.692C164.237 221.484 165.33 193.992 181.568 166.796Z" fill="#FAFAFA"/>
</g>
<g filter="url(#filter3_i_608_2)">
<path d="M214.342 190.541C206.756 205.566 207.716 219.718 217.644 232.675C226.857 244.698 239.493 249.044 254.384 246.455C256.997 246.001 257.775 246.917 258.569 249.144C261.85 258.347 260.732 259.832 250.916 260.342C219.722 261.961 195.291 237.33 196.332 207.144C196.724 195.811 200.672 185.57 207.991 176.706C209.985 174.292 211.445 174.243 213.789 176.295C220.04 181.765 220.124 181.669 214.342 190.541Z" fill="#FAFAFA"/>
</g>
<g clip-path="url(#clip0_608_2)">
<path d="M117.514 358.714C111.249 362.036 109.975 365.464 109.975 379.5C109.975 393.643 111.249 397.179 117.726 400.179C122.504 402.536 127.494 402.429 132.909 399.964C139.173 397.072 140.765 393 140.765 379.607C140.765 367.393 139.385 362.786 134.926 359.786C130.785 357 121.973 356.464 117.514 358.714ZM130.785 366.75C132.484 368.679 132.803 370.714 132.803 379.5C132.803 391.5 131.316 394.5 125.477 394.5C119.106 394.5 117.407 391.286 117.407 379.5C117.407 371.143 118.469 367.072 121.017 365.357C123.353 363.75 128.768 364.5 130.785 366.75Z" fill="white"/>
<path d="M300.449 358.5C295.672 360.643 293.654 364.072 293.654 370.179C293.654 374.465 294.185 375.965 296.733 378.429C298.432 380.143 301.086 381.857 302.785 382.179C312.447 384.322 314.358 385.286 314.676 388.393C315.207 392.572 313.19 394.5 308.412 394.5C304.272 394.5 301.723 392.786 300.555 389.143C299.6 386.036 292.593 386.036 292.593 389.143C292.593 392.465 295.353 397.179 298.432 399.215C302.785 402.107 311.491 402.536 315.951 400.179C320.835 397.607 323.914 391.5 322.852 386.25C321.896 381 317.968 377.679 310.854 376.179C302.997 374.572 301.086 373.5 301.086 370.607C301.086 366.215 303.422 364.286 307.988 364.715C311.597 365.036 312.447 365.572 313.721 368.465C314.995 371.465 315.844 372 318.923 372C322.427 372 322.533 371.893 321.896 368.572C320.941 363.536 318.393 360.215 314.358 358.5C309.793 356.679 304.802 356.679 300.449 358.5Z" fill="white"/>
<path d="M76 379.5V400.929H79.1852C82.3704 400.929 82.3704 400.822 82.3704 395.036V389.143H86.4049C92.7753 389.143 97.9778 387.214 100.844 383.679C103.18 380.893 103.605 379.393 103.605 373.179C103.605 361.286 99.6765 358.072 85.0247 358.072H76V379.5ZM94.7926 367.286C96.7037 369.857 96.5975 376.393 94.4741 379.286C93.2 381.214 91.8198 381.643 87.5728 381.643H82.3704V372.964V364.179L87.8914 364.714C91.5012 365.143 93.837 366 94.7926 367.286Z" fill="white"/>
<path d="M147.136 379.5V400.929H151.383H155.63V382.607V364.179L161.044 364.714C167.733 365.357 168.901 366.643 168.901 372.643C168.901 378 166.778 380.572 162.318 380.572C158.709 380.572 159.239 383.679 164.442 392.893C168.901 400.822 168.901 400.822 173.467 400.929H178.032L174.635 394.714C172.723 391.393 170.812 388.072 170.281 387.322C169.644 386.464 170.175 385.5 171.874 384.429C175.272 382.179 176.864 378.322 176.864 372.429C176.864 361.5 172.193 358.072 157.222 358.072H147.136V379.5Z" fill="white"/>
<path d="M180.049 361.286C180.049 364.393 180.155 364.5 185.358 364.5H190.667V382.714V400.929H194.383H198.099L198.311 383.036L198.63 365.036L204.257 364.714C209.565 364.393 209.778 364.286 209.778 361.179V358.072H194.914H180.049V361.286Z" fill="white"/>
<path d="M212.963 379.5V400.929H217.21H221.457L221.563 389.893V378.964L224.43 384.536C227.084 389.893 227.402 390.214 231.331 390.214C235.259 390.214 235.472 390 238.444 383.464L241.523 376.822V388.822L241.63 400.929H245.346H249.062V379.5V358.072H246.089C243.222 358.072 242.585 358.929 237.17 370.072L231.331 382.179L225.704 370.072C220.183 358.286 219.97 358.072 216.573 358.072H212.963V379.5Z" fill="white"/>
<path d="M260.741 378.107C257.025 389.143 253.84 398.893 253.521 399.643C253.203 400.5 254.37 400.929 257.343 400.929C261.59 400.929 261.696 400.822 263.077 395.786L264.563 390.75L271.04 390.429L277.516 390.107L279.321 395.572C281.02 400.822 281.126 400.929 285.267 400.929C288.877 400.929 289.407 400.607 288.983 399C288.664 398.036 285.373 388.5 281.657 377.893L275.074 358.607L271.358 358.286L267.536 357.964L260.741 378.107ZM273.906 376.5C274.862 379.822 275.605 382.822 275.605 383.143C275.605 383.464 273.694 383.786 271.358 383.786C269.022 383.786 267.111 383.25 267.111 382.714C267.111 380.143 270.827 368.893 271.464 369.643C271.889 370.072 272.951 373.072 273.906 376.5Z" fill="white"/>
<path d="M325.506 361.286C325.506 364.393 325.612 364.5 330.815 364.5H336.123L336.336 382.393L336.654 400.393L340.689 400.714L344.617 401.036V382.822V364.5H349.926C355.128 364.5 355.235 364.393 355.235 361.286V358.072H340.37H325.506V361.286Z" fill="white"/>
<path d="M359.481 379.5V400.929H372.222H384.963V397.714V394.607L376.257 394.286L367.444 393.964L367.126 388.393L366.807 382.714H374.346H381.884L381.565 379.179L381.247 375.75L374.027 375.429L366.807 375.107L367.126 370.072L367.444 365.036L376.257 364.714L384.963 364.393V361.286V358.072H372.222H359.481V379.5Z" fill="white"/>
<path d="M390.271 379.5V400.929H394.518H398.765V382.607V364.179L404.286 364.714C410.55 365.357 412.568 367.286 412.568 372.75C412.568 377.036 409.383 380.572 405.667 380.572C401.738 380.572 402.269 384 407.684 392.893C411.718 399.857 412.462 400.393 416.071 400.714C421.062 401.143 421.062 400.072 416.284 392.143C412.78 386.25 412.78 385.929 414.691 384.857C417.983 383.143 420 378 420 371.786C420 361.179 415.541 358.072 400.358 358.072H390.271V379.5Z" fill="white"/>
</g>
<defs>
<filter id="filter0_i_608_2" x="121" y="83" width="254" height="256.268" filterUnits="userSpaceOnUse" color-interpolation-filters="sRGB">
<feFlood flood-opacity="0" result="BackgroundImageFix"/>
<feBlend mode="normal" in="SourceGraphic" in2="BackgroundImageFix" result="shape"/>
<feColorMatrix in="SourceAlpha" type="matrix" values="0 0 0 0 0 0 0 0 0 0 0 0 0 0 0 0 0 0 127 0" result="hardAlpha"/>
<feOffset dy="4"/>
<feGaussianBlur stdDeviation="1.5"/>
<feComposite in2="hardAlpha" operator="arithmetic" k2="-1" k3="1"/>
<feColorMatrix type="matrix" values="0 0 0 0 0 0 0 0 0 0 0 0 0 0 0 0 0 0 0.2 0"/>
<feBlend mode="normal" in2="shape" result="effect1_innerShadow_608_2"/>
</filter>
<filter id="filter1_i_608_2" x="209.796" y="226.08" width="116.059" height="67.8516" filterUnits="userSpaceOnUse" color-interpolation-filters="sRGB">
<feFlood flood-opacity="0" result="BackgroundImageFix"/>
<feBlend mode="normal" in="SourceGraphic" in2="BackgroundImageFix" result="shape"/>
<feColorMatrix in="SourceAlpha" type="matrix" values="0 0 0 0 0 0 0 0 0 0 0 0 0 0 0 0 0 0 127 0" result="hardAlpha"/>
<feOffset dy="4"/>
<feGaussianBlur stdDeviation="1.5"/>
<feComposite in2="hardAlpha" operator="arithmetic" k2="-1" k3="1"/>
<feColorMatrix type="matrix" values="0 0 0 0 0 0 0 0 0 0 0 0 0 0 0 0 0 0 0.2 0"/>
<feBlend mode="normal" in2="shape" result="effect1_innerShadow_608_2"/>
</filter>
<filter id="filter2_i_608_2" x="168.396" y="141.461" width="50.1658" height="114.808" filterUnits="userSpaceOnUse" color-interpolation-filters="sRGB">
<feFlood flood-opacity="0" result="BackgroundImageFix"/>
<feBlend mode="normal" in="SourceGraphic" in2="BackgroundImageFix" result="shape"/>
<feColorMatrix in="SourceAlpha" type="matrix" values="0 0 0 0 0 0 0 0 0 0 0 0 0 0 0 0 0 0 127 0" result="hardAlpha"/>
<feOffset dy="4"/>
<feGaussianBlur stdDeviation="1.5"/>
<feComposite in2="hardAlpha" operator="arithmetic" k2="-1" k3="1"/>
<feColorMatrix type="matrix" values="0 0 0 0 0 0 0 0 0 0 0 0 0 0 0 0 0 0 0.2 0"/>
<feBlend mode="normal" in2="shape" result="effect1_innerShadow_608_2"/>
</filter>
<filter id="filter3_i_608_2" x="196.3" y="174.821" width="63.926" height="88.5959" filterUnits="userSpaceOnUse" color-interpolation-filters="sRGB">
<feFlood flood-opacity="0" result="BackgroundImageFix"/>
<feBlend mode="normal" in="SourceGraphic" in2="BackgroundImageFix" result="shape"/>
<feColorMatrix in="SourceAlpha" type="matrix" values="0 0 0 0 0 0 0 0 0 0 0 0 0 0 0 0 0 0 127 0" result="hardAlpha"/>
<feOffset dy="4"/>
<feGaussianBlur stdDeviation="1.5"/>
<feComposite in2="hardAlpha" operator="arithmetic" k2="-1" k3="1"/>
<feColorMatrix type="matrix" values="0 0 0 0 0 0 0 0 0 0 0 0 0 0 0 0 0 0 0.2 0"/>
<feBlend mode="normal" in2="shape" result="effect1_innerShadow_608_2"/>
</filter>
<clipPath id="clip0_608_2">
<rect width="344" height="45" fill="white" transform="translate(76 357)"/>
</clipPath>
</defs>
</svg>
