<svg width="1024" height="1024" viewBox="0 0 1024 1024" fill="none" xmlns="http://www.w3.org/2000/svg">
<g opacity="0.205133">
<path d="M756.942 76.1523H267.462C159.763 76.1523 72.4551 163.46 72.4551 271.159V760.639C72.4551 868.339 159.763 955.647 267.462 955.647H756.942C864.642 955.647 951.949 868.339 951.949 760.639V271.159C951.949 163.46 864.642 76.1523 756.942 76.1523Z" stroke="black" stroke-opacity="0.02" stroke-width="0.368781" stroke-linecap="round" stroke-linejoin="round"/>
<path d="M756.942 76.1523H267.462C159.763 76.1523 72.4551 163.46 72.4551 271.159V760.639C72.4551 868.339 159.763 955.647 267.462 955.647H756.942C864.642 955.647 951.949 868.339 951.949 760.639V271.159C951.949 163.46 864.642 76.1523 756.942 76.1523Z" stroke="black" stroke-opacity="0.02" stroke-width="0.737561" stroke-linecap="round" stroke-linejoin="round"/>
<path d="M756.942 76.1523H267.462C159.763 76.1523 72.4551 163.46 72.4551 271.159V760.639C72.4551 868.339 159.763 955.647 267.462 955.647H756.942C864.642 955.647 951.949 868.339 951.949 760.639V271.159C951.949 163.46 864.642 76.1523 756.942 76.1523Z" stroke="black" stroke-opacity="0.02" stroke-width="1.10634" stroke-linecap="round" stroke-linejoin="round"/>
<path d="M756.942 76.1523H267.462C159.763 76.1523 72.4551 163.46 72.4551 271.159V760.639C72.4551 868.339 159.763 955.647 267.462 955.647H756.942C864.642 955.647 951.949 868.339 951.949 760.639V271.159C951.949 163.46 864.642 76.1523 756.942 76.1523Z" stroke="black" stroke-opacity="0.02" stroke-width="1.47512" stroke-linecap="round" stroke-linejoin="round"/>
<path d="M756.942 76.1523H267.462C159.763 76.1523 72.4551 163.46 72.4551 271.159V760.639C72.4551 868.339 159.763 955.647 267.462 955.647H756.942C864.642 955.647 951.949 868.339 951.949 760.639V271.159C951.949 163.46 864.642 76.1523 756.942 76.1523Z" stroke="black" stroke-opacity="0.02" stroke-width="1.8439" stroke-linecap="round" stroke-linejoin="round"/>
<path d="M756.942 76.1523H267.462C159.763 76.1523 72.4551 163.46 72.4551 271.159V760.639C72.4551 868.339 159.763 955.647 267.462 955.647H756.942C864.642 955.647 951.949 868.339 951.949 760.639V271.159C951.949 163.46 864.642 76.1523 756.942 76.1523Z" stroke="black" stroke-opacity="0.02" stroke-width="2.21268" stroke-linecap="round" stroke-linejoin="round"/>
<path d="M756.942 76.1523H267.462C159.763 76.1523 72.4551 163.46 72.4551 271.159V760.639C72.4551 868.339 159.763 955.647 267.462 955.647H756.942C864.642 955.647 951.949 868.339 951.949 760.639V271.159C951.949 163.46 864.642 76.1523 756.942 76.1523Z" stroke="black" stroke-opacity="0.02" stroke-width="2.58146" stroke-linecap="round" stroke-linejoin="round"/>
<path d="M756.942 76.1523H267.462C159.763 76.1523 72.4551 163.46 72.4551 271.159V760.639C72.4551 868.339 159.763 955.647 267.462 955.647H756.942C864.642 955.647 951.949 868.339 951.949 760.639V271.159C951.949 163.46 864.642 76.1523 756.942 76.1523Z" stroke="black" stroke-opacity="0.02" stroke-width="2.95025" stroke-linecap="round" stroke-linejoin="round"/>
<path d="M756.942 76.1523H267.462C159.763 76.1523 72.4551 163.46 72.4551 271.159V760.639C72.4551 868.339 159.763 955.647 267.462 955.647H756.942C864.642 955.647 951.949 868.339 951.949 760.639V271.159C951.949 163.46 864.642 76.1523 756.942 76.1523Z" stroke="black" stroke-opacity="0.02" stroke-width="3.68781" stroke-linecap="round" stroke-linejoin="round"/>
<path d="M756.942 76.1523H267.462C159.763 76.1523 72.4551 163.46 72.4551 271.159V760.639C72.4551 868.339 159.763 955.647 267.462 955.647H756.942C864.642 955.647 951.949 868.339 951.949 760.639V271.159C951.949 163.46 864.642 76.1523 756.942 76.1523Z" stroke="black" stroke-opacity="0.02" stroke-width="4.42537" stroke-linecap="round" stroke-linejoin="round"/>
<path d="M756.942 76.1523H267.462C159.763 76.1523 72.4551 163.46 72.4551 271.159V760.639C72.4551 868.339 159.763 955.647 267.462 955.647H756.942C864.642 955.647 951.949 868.339 951.949 760.639V271.159C951.949 163.46 864.642 76.1523 756.942 76.1523Z" stroke="black" stroke-opacity="0.02" stroke-width="5.16293" stroke-linecap="round" stroke-linejoin="round"/>
<path d="M756.942 76.1523H267.462C159.763 76.1523 72.4551 163.46 72.4551 271.159V760.639C72.4551 868.339 159.763 955.647 267.462 955.647H756.942C864.642 955.647 951.949 868.339 951.949 760.639V271.159C951.949 163.46 864.642 76.1523 756.942 76.1523Z" stroke="black" stroke-opacity="0.02" stroke-width="5.90049" stroke-linecap="round" stroke-linejoin="round"/>
<path d="M756.942 76.1523H267.462C159.763 76.1523 72.4551 163.46 72.4551 271.159V760.639C72.4551 868.339 159.763 955.647 267.462 955.647H756.942C864.642 955.647 951.949 868.339 951.949 760.639V271.159C951.949 163.46 864.642 76.1523 756.942 76.1523Z" stroke="black" stroke-opacity="0.02" stroke-width="6.63805" stroke-linecap="round" stroke-linejoin="round"/>
<path d="M756.942 76.1523H267.462C159.763 76.1523 72.4551 163.46 72.4551 271.159V760.639C72.4551 868.339 159.763 955.647 267.462 955.647H756.942C864.642 955.647 951.949 868.339 951.949 760.639V271.159C951.949 163.46 864.642 76.1523 756.942 76.1523Z" stroke="black" stroke-opacity="0.02" stroke-width="7.37561" stroke-linecap="round" stroke-linejoin="round"/>
<path d="M756.942 76.1523H267.462C159.763 76.1523 72.4551 163.46 72.4551 271.159V760.639C72.4551 868.339 159.763 955.647 267.462 955.647H756.942C864.642 955.647 951.949 868.339 951.949 760.639V271.159C951.949 163.46 864.642 76.1523 756.942 76.1523Z" stroke="black" stroke-opacity="0.02" stroke-width="8.11317" stroke-linecap="round" stroke-linejoin="round"/>
<path d="M756.942 76.1523H267.462C159.763 76.1523 72.4551 163.46 72.4551 271.159V760.639C72.4551 868.339 159.763 955.647 267.462 955.647H756.942C864.642 955.647 951.949 868.339 951.949 760.639V271.159C951.949 163.46 864.642 76.1523 756.942 76.1523Z" stroke="black" stroke-opacity="0.02" stroke-width="9.5883" stroke-linecap="round" stroke-linejoin="round"/>
<path d="M756.942 76.1523H267.462C159.763 76.1523 72.4551 163.46 72.4551 271.159V760.639C72.4551 868.339 159.763 955.647 267.462 955.647H756.942C864.642 955.647 951.949 868.339 951.949 760.639V271.159C951.949 163.46 864.642 76.1523 756.942 76.1523Z" stroke="black" stroke-opacity="0.02" stroke-width="11.0634" stroke-linecap="round" stroke-linejoin="round"/>
<path d="M756.942 76.1523H267.462C159.763 76.1523 72.4551 163.46 72.4551 271.159V760.639C72.4551 868.339 159.763 955.647 267.462 955.647H756.942C864.642 955.647 951.949 868.339 951.949 760.639V271.159C951.949 163.46 864.642 76.1523 756.942 76.1523Z" stroke="black" stroke-opacity="0.02" stroke-width="12.5385" stroke-linecap="round" stroke-linejoin="round"/>
<path d="M756.942 76.1523H267.462C159.763 76.1523 72.4551 163.46 72.4551 271.159V760.639C72.4551 868.339 159.763 955.647 267.462 955.647H756.942C864.642 955.647 951.949 868.339 951.949 760.639V271.159C951.949 163.46 864.642 76.1523 756.942 76.1523Z" stroke="black" stroke-opacity="0.02" stroke-width="14.0137" stroke-linecap="round" stroke-linejoin="round"/>
<path d="M756.942 76.1523H267.462C159.763 76.1523 72.4551 163.46 72.4551 271.159V760.639C72.4551 868.339 159.763 955.647 267.462 955.647H756.942C864.642 955.647 951.949 868.339 951.949 760.639V271.159C951.949 163.46 864.642 76.1523 756.942 76.1523Z" stroke="black" stroke-opacity="0.02" stroke-width="15.4888" stroke-linecap="round" stroke-linejoin="round"/>
<path d="M756.942 76.1523H267.462C159.763 76.1523 72.4551 163.46 72.4551 271.159V760.639C72.4551 868.339 159.763 955.647 267.462 955.647H756.942C864.642 955.647 951.949 868.339 951.949 760.639V271.159C951.949 163.46 864.642 76.1523 756.942 76.1523Z" stroke="black" stroke-opacity="0.02" stroke-width="16.9639" stroke-linecap="round" stroke-linejoin="round"/>
<path d="M756.942 76.1523H267.462C159.763 76.1523 72.4551 163.46 72.4551 271.159V760.639C72.4551 868.339 159.763 955.647 267.462 955.647H756.942C864.642 955.647 951.949 868.339 951.949 760.639V271.159C951.949 163.46 864.642 76.1523 756.942 76.1523Z" stroke="black" stroke-opacity="0.02" stroke-width="18.439" stroke-linecap="round" stroke-linejoin="round"/>
</g>
<path d="M756.94 76.1523H267.46C159.761 76.1523 72.4531 163.46 72.4531 271.159V760.639C72.4531 868.339 159.761 955.647 267.46 955.647H756.94C864.64 955.647 951.947 868.339 951.947 760.639V271.159C951.947 163.46 864.64 76.1523 756.94 76.1523Z" fill="url(#paint0_linear_893_36)"/>
<path d="M512.201 994.864C776.727 994.864 991.167 780.424 991.167 515.899C991.167 251.374 776.727 36.9336 512.201 36.9336C247.676 36.9336 33.2363 251.374 33.2363 515.899C33.2363 780.424 247.676 994.864 512.201 994.864Z" fill="url(#paint1_radial_893_36)"/>
<path d="M512 849C695.911 849 845 699.911 845 516C845 332.089 695.911 183 512 183C328.089 183 179 332.089 179 516C179 699.911 328.089 849 512 849Z" fill="url(#paint2_linear_893_36)"/>
<path d="M603.145 671.137C535.548 638.228 462.381 630.043 369.946 645.049C320.013 653.156 318.783 653.101 310.072 642.364C298.013 627.501 303.281 611.74 322.554 605.021C352.118 594.715 431.359 587.024 477.27 590.005C535.596 593.792 585.576 606.453 628.443 628.3C656.829 642.768 662.702 648.143 664.208 661.029C665.394 671.175 662.75 678.832 656.475 683.42C644.534 692.151 647.902 692.927 603.145 671.137ZM633.945 576.654C562.133 542.114 470.23 528.566 388.478 540.467C298.586 553.554 280.623 548.779 292.424 514.931C300.583 491.524 351.854 479.937 447.756 479.825C511.413 479.749 530.846 481.836 575.028 493.484C603.707 501.045 644.758 516.446 666.254 527.709C699.09 544.914 705.613 550.597 707.066 563.268C710.97 597.322 686.304 601.838 633.945 576.654ZM684.328 474.95C590.619 426.609 419.563 413.96 302.021 446.68C274.085 454.457 255.033 403.544 280.06 387.993C312.415 367.89 423.478 356.046 511.995 363.261C621.42 372.18 746.217 414.77 754.02 445.859C758.706 464.533 752.775 478.555 737.179 485.66C719.608 493.666 721.255 494 684.328 474.95Z" fill="black" fill-opacity="0.84"/>
<defs>
<linearGradient id="paint0_linear_893_36" x1="520.848" y1="118.692" x2="520.848" y2="960.35" gradientUnits="userSpaceOnUse">
<stop stop-color="#2E2E2E"/>
<stop offset="1" stop-color="#080A0B"/>
</linearGradient>
<radialGradient id="paint1_radial_893_36" cx="0" cy="0" r="1" gradientUnits="userSpaceOnUse" gradientTransform="translate(512.201 515.899) scale(422.574 414.443)">
<stop/>
<stop offset="0.6" stop-opacity="0.87451"/>
<stop offset="0.878409" stop-opacity="0.113725"/>
<stop offset="0.924" stop-opacity="0.0352941"/>
<stop offset="0.96" stop-opacity="0"/>
<stop offset="1" stop-opacity="0.01"/>
</radialGradient>
<linearGradient id="paint2_linear_893_36" x1="503.704" y1="276.025" x2="633.611" y2="760.846" gradientUnits="userSpaceOnUse">
<stop stop-color="#12D04F"/>
<stop offset="1" stop-color="#0C9E3B"/>
</linearGradient>
</defs>
</svg>
