<svg width="512" height="512" viewBox="0 0 512 512" fill="none" xmlns="http://www.w3.org/2000/svg">
<path d="M377.015 29H134.227C76.1117 29 29 76.1117 29 134.227V377.015C29 435.13 76.1117 482.242 134.227 482.242H377.015C435.13 482.242 482.242 435.13 482.242 377.015V134.227C482.242 76.1117 435.13 29 377.015 29Z" fill="url(#paint0_linear_817_2)"/>
<path fill-rule="evenodd" clip-rule="evenodd" d="M252.469 92.0064C273.728 91.8254 294.276 95.4848 314.115 102.985C336.752 113.19 356.456 127.546 373.229 146.053C391.795 169.082 403.335 195.261 407.852 224.589C409.382 241.336 408.537 257.944 405.319 274.413C399.967 300.031 388.989 322.832 372.384 342.815C355.523 362.645 334.974 377.283 310.738 386.728C269.683 400.596 229.289 398.907 189.555 381.661C164.15 386.969 138.675 391.613 113.13 395.595C112.626 394.698 112.345 393.714 112.286 392.64C114.041 381.699 115.448 370.72 116.508 359.705C118.555 346.508 120.525 333.278 122.42 320.015C122.555 318.58 122.414 317.172 121.997 315.792C112.908 297.954 107.137 279.094 104.686 259.212C103.116 242.14 104.242 225.25 108.064 208.544C110.09 200.776 112.624 193.175 115.664 185.743C128.92 155.033 149.75 130.825 178.155 113.118C201.135 99.924 225.907 92.8868 252.469 92.0064Z" fill="#FDFEFD"/>
<circle cx="254.58" cy="244.434" r="126.671" fill="url(#paint1_linear_817_2)"/>
<path fill-rule="evenodd" clip-rule="evenodd" d="M217.845 168.854C219.866 170.742 221.415 172.994 222.49 175.61C225.388 183.888 228.344 192.052 231.357 200.099C231.638 201.225 231.92 202.352 232.201 203.477C233.74 208.07 233.036 212.292 230.09 216.144C226.993 219.241 223.898 222.337 220.801 225.434C219.641 227.287 219.36 229.258 219.956 231.345C231.414 255.048 249.288 271.937 273.581 282.014C274.795 281.829 275.921 281.406 276.958 280.747C282.491 275.639 287.558 270.149 292.159 264.28C294.357 263.383 296.609 263.243 298.915 263.857C309.465 269.272 319.88 274.902 330.16 280.747C331.546 281.7 332.391 282.967 332.694 284.547C332.847 294.38 329.469 302.684 322.56 309.459C312.567 317.267 301.307 320.082 288.781 317.904C262.143 311.629 239.342 298.822 220.379 279.48C208.914 266.616 198.78 252.823 189.978 238.101C186.188 229.82 183.092 221.375 180.688 212.767C178.916 194.365 185.39 179.727 200.111 168.854C206.012 167.762 211.923 167.762 217.845 168.854Z" fill="#FDFEFD"/>
<path d="M145.015 363.039L151.372 316.075L191.209 352.451L145.015 363.039Z" fill="#00C853"/>
<defs>
<linearGradient id="paint0_linear_817_2" x1="239.42" y1="458.217" x2="239.42" y2="53.5373" gradientUnits="userSpaceOnUse">
<stop stop-color="#00C853"/>
<stop offset="1" stop-color="#00E676"/>
</linearGradient>
<linearGradient id="paint1_linear_817_2" x1="254.58" y1="117.763" x2="254.58" y2="257.524" gradientUnits="userSpaceOnUse">
<stop stop-color="#00E676"/>
<stop offset="1" stop-color="#00C853"/>
</linearGradient>
</defs>
</svg>
